<?xml version="1.0" encoding="UTF-8"?>
<!DOCTYPE svg PUBLIC "-//W3C//DTD SVG 1.1//EN" "http://www.w3.org/Graphics/SVG/1.1/DTD/svg11.dtd">
<!-- Creator: CorelDRAW X7 -->
<svg xmlns="http://www.w3.org/2000/svg" xml:space="preserve" width="68.1693mm" height="10.4833mm" version="1.1" style="shape-rendering:geometricPrecision; text-rendering:geometricPrecision; image-rendering:optimizeQuality; fill-rule:evenodd; clip-rule:evenodd"
viewBox="0 0 3006 462"
 xmlns:xlink="http://www.w3.org/1999/xlink">
 <defs>
  <style type="text/css">
   <![CDATA[
    .str0 {stroke:#9D9E9E;stroke-width:13.2269}
    .fil3 {fill:none}
    .fil0 {fill:#FEFEFE}
    .fil6 {fill:#393185}
    .fil4 {fill:#CFD0D0;fill-rule:nonzero}
    .fil5 {fill:#9D9E9E;fill-rule:nonzero}
    .fil7 {fill:#898989;fill-rule:nonzero}
    .fil2 {fill:#2B2A29;fill-rule:nonzero}
    .fil1 {fill:#393185;fill-rule:nonzero}
   ]]>
  </style>
 </defs>
 <g id="Vrstva_x0020_1">
  <metadata id="CorelCorpID_0Corel-Layer"/>
  <circle class="fil0" cx="231" cy="235" r="227"/>
  <path class="fil1" d="M657 343l-121 0c1,-2 1,-3 2,-5 0,-1 0,-3 0,-5l0 -173c0,-4 0,-7 -2,-9l69 0c-1,2 -2,5 -2,9l0 154 40 0c6,0 11,-1 14,-2l0 31z"/>
  <path id="1" class="fil1" d="M670 151l68 0c0,1 -1,3 -1,4 -1,2 -1,3 -1,5l0 173c0,4 1,7 2,10l-68 0c0,-2 1,-3 1,-5 0,-1 1,-3 1,-5l0 -173c0,-4 -1,-7 -2,-9z"/>
  <path id="2" class="fil1" d="M767 151l99 0c16,0 29,4 38,12 9,9 14,21 14,37 0,17 -6,29 -16,35 -3,2 -9,5 -17,8 11,2 18,6 24,11 8,8 12,20 12,35 0,21 -7,36 -22,45 -9,6 -20,9 -32,9l-100 0c1,-2 1,-3 1,-5 1,-1 1,-3 1,-5l0 -173c0,-4 -1,-7 -2,-9zm67 83l5 0c6,0 10,-3 13,-7 2,-4 3,-12 3,-22 0,-9 -1,-16 -4,-21 -2,-4 -6,-6 -12,-6l-5 0 0 56zm0 82l7 0c5,0 9,-2 11,-6 3,-5 4,-11 4,-20 0,-11 -1,-18 -4,-23 -2,-4 -6,-7 -11,-7l-7 0 0 56z"/>
  <path id="3" class="fil1" d="M943 151l123 0 0 28c-4,-1 -7,-1 -10,-1l-47 0 0 55 46 0c5,0 8,-1 11,-1l0 29c-3,-1 -6,-2 -10,-2l-47 0 0 55 45 0c5,0 9,-1 12,-2l0 31 -123 0c0,-2 1,-3 1,-5 1,-1 1,-3 1,-5l0 -173c0,-4 -1,-7 -2,-9z"/>
  <path id="4" class="fil1" d="M1156 259l0 74c0,4 1,7 2,10l-69 0c2,-3 2,-6 2,-10l0 -173c0,-3 0,-7 -2,-9l97 0c17,0 31,4 42,14 10,9 16,22 16,40 0,11 -3,21 -7,28 -5,8 -12,15 -23,21l35 79c2,4 4,7 6,10l-74 0 0 -2c0,-2 -1,-4 -2,-8l-23 -74zm0 -19l5 0c11,0 17,-10 17,-30 0,-22 -5,-33 -16,-33l-6 0 0 63z"/>
  <path id="5" class="fil1" d="M1267 151l123 0 0 28c-3,-1 -6,-1 -10,-1l-46 0 0 55 46 0c4,0 8,-1 10,-1l0 29c-2,-1 -6,-2 -10,-2l-46 0 0 55 45 0c5,0 9,-1 11,-2l0 31 -123 0c1,-2 1,-3 2,-5 0,-1 0,-3 0,-5l0 -173c0,-4 0,-7 -2,-9z"/>
  <path id="6" class="fil1" d="M1567 157l0 41c-18,-14 -34,-21 -47,-21 -14,0 -25,6 -33,18 -8,12 -12,29 -12,51 0,12 2,23 4,32 2,8 6,16 10,22 4,5 9,9 15,12 5,3 11,4 17,4 13,0 29,-7 46,-20l0 40c-18,7 -38,10 -59,10 -34,0 -59,-8 -76,-25 -16,-17 -24,-43 -24,-76 0,-23 4,-41 11,-54 6,-9 13,-17 22,-24 9,-6 19,-11 31,-15 6,-1 12,-3 19,-3 7,-1 15,-2 23,-2 19,0 37,4 53,10z"/>
  <path id="7" class="fil1" d="M1656 264l0 69c0,4 0,7 2,10l-69 0c1,-2 1,-3 1,-5 1,-1 1,-3 1,-5l0 -173c0,-4 -1,-7 -2,-9l69 0c-1,1 -2,3 -2,4 0,2 0,3 0,5l0 77 44 -77c1,-3 3,-6 3,-9l49 0c-3,2 -6,5 -8,9l-41 69 50 104c2,4 4,7 6,10l-75 0c0,-3 -1,-6 -3,-10l-25 -69z"/>
  <path id="8" class="fil1" d="M1795 294l-13 39c-1,3 -2,6 -2,7l0 3 -34 0c2,-3 4,-6 5,-10l60 -173c1,-1 1,-2 1,-3 1,-2 1,-3 1,-4l0 -2 54 0 0 1c0,1 0,2 1,3 0,2 0,3 1,5l62 173c1,4 3,7 6,10l-74 0 0 -3c0,-2 0,-4 -1,-7l-13 -39 -54 0zm10 -29l35 0 -17 -55 -18 55zm19 -129l20 -51 41 0 -35 51 -26 0z"/>
  <path id="9" class="fil2" d="M2043 151l100 0c16,0 28,4 38,12 9,9 13,21 13,37 0,17 -5,29 -16,35 -3,2 -8,5 -16,8 10,2 18,6 23,11 8,8 12,20 12,35 0,21 -7,36 -21,45 -9,6 -20,9 -33,9l-100 0c1,-2 1,-3 2,-5 0,-1 0,-3 0,-5l0 -173c0,-4 0,-7 -2,-9zm67 83l5 0c6,0 10,-3 13,-7 2,-4 4,-12 4,-22 0,-9 -2,-16 -4,-21 -3,-4 -7,-6 -13,-6l-5 0 0 56zm0 82l7 0c5,0 9,-2 12,-6 2,-5 3,-11 3,-20 0,-11 -1,-18 -3,-23 -3,-4 -6,-7 -12,-7l-7 0 0 56z"/>
  <path id="10" class="fil2" d="M2315 147c28,0 51,7 69,20 22,16 33,43 33,80 0,34 -9,59 -29,76 -17,15 -43,23 -75,23 -22,0 -40,-3 -53,-10 -17,-9 -30,-22 -38,-40 -6,-14 -9,-31 -9,-51 0,-10 1,-21 4,-31 2,-11 6,-20 10,-27 9,-13 20,-23 35,-30 14,-6 32,-10 53,-10zm0 27c-12,0 -20,6 -26,17 -5,12 -8,30 -8,54 0,25 2,43 8,56 5,12 14,18 26,18 12,0 21,-6 26,-17 6,-12 9,-30 9,-54 0,-13 -1,-24 -2,-33 -1,-9 -3,-16 -6,-22 -6,-13 -14,-19 -27,-19z"/>
  <path id="11" class="fil2" d="M2610 151c-1,1 -1,2 -1,3 -1,2 -1,4 -1,6l0 114c0,18 -5,34 -15,45 -14,18 -38,27 -71,27 -26,0 -47,-6 -61,-19 -8,-6 -13,-14 -17,-23 -3,-9 -5,-20 -5,-34l0 -110c0,-4 -1,-7 -2,-9l69 0c-1,1 -2,3 -2,4 0,2 0,3 0,5l0 115c0,13 3,23 8,29 4,4 8,7 12,8 5,2 10,3 16,3 9,0 17,-3 25,-8 5,-3 8,-8 10,-13 3,-6 4,-13 4,-22l0 -112c0,-4 -1,-7 -2,-9l33 0z"/>
  <path id="12" class="fil2" d="M2635 151l81 0c66,0 99,31 99,94 0,32 -9,57 -25,74 -16,16 -35,24 -58,24l-97 0c0,-2 1,-3 1,-5 0,-1 1,-3 1,-5l0 -173c0,-4 -1,-7 -2,-9zm66 163l8 0c12,0 22,-6 28,-16 7,-12 10,-29 10,-51 0,-24 -4,-42 -13,-54 -3,-4 -7,-7 -11,-10 -5,-2 -10,-3 -16,-3l-6 0 0 134z"/>
  <path id="13" class="fil2" d="M2859 294l-13 39c-1,3 -2,6 -2,7l1 3 -35 0c2,-3 4,-6 5,-10l61 -173c0,-1 0,-2 1,-3 0,-2 0,-3 0,-4l0 -2 54 0 0 1c0,1 0,2 1,3 0,2 1,3 1,5l62 173c1,4 3,7 6,10l-74 0 0 -3c0,-2 0,-4 -1,-7l-13 -39 -54 0zm10 -29l35 0 -17 -55 -18 55z"/>
  <circle class="fil3" cx="230" cy="230" r="227"/>
  <path class="fil4" d="M230 0c126,0 229,103 229,230 0,126 -103,229 -229,229 -127,0 -230,-103 -230,-229 0,-127 103,-230 230,-230zm0 6c-124,0 -224,100 -224,224 0,123 100,223 224,223 123,0 223,-100 223,-223 0,-124 -100,-224 -223,-224z"/>
  <circle class="fil3" cx="230" cy="230" r="191"/>
  <path class="fil5" d="M230 32c108,0 197,89 197,198 0,108 -89,197 -197,197 -109,0 -198,-89 -198,-197 0,-109 89,-198 198,-198zm0 12c-102,0 -186,84 -186,186 0,102 84,185 186,185 102,0 185,-83 185,-185 0,-102 -83,-186 -185,-186z"/>
  <rect class="fil6" transform="matrix(1 2.11877E-013 -0.864864 1 219.984 81.6919)" width="32.5689" height="181.865"/>
  <rect class="fil6" transform="matrix(1 2.11877E-013 0.864864 1 214.714 81.6919)" width="32.5689" height="181.865"/>
  <line class="fil3" x1="174" y1="214" x2="264" y2= "385" />
  <polygon class="fil7" points="179,212 269,383 258,388 169,217 "/>
  <line class="fil3" x1="291" y1="214" x2="201" y2= "385" />
  <polygon class="fil7" points="296,217 206,388 196,383 285,212 "/>
  <line class="fil3 str0" x1="534" y1="89" x2="1783" y2= "89" />
  <line class="fil3 str0" x1="1923" y1="89" x2="2939" y2= "89" />
  <line class="fil3 str0" x1="534" y1="405" x2="3006" y2= "405" />
 </g>
</svg>
