<?xml version="1.0" encoding="UTF-8" standalone="no"?>
<svg
   xmlns:dc="http://purl.org/dc/elements/1.1/"
   xmlns:cc="http://creativecommons.org/ns#"
   xmlns:rdf="http://www.w3.org/1999/02/22-rdf-syntax-ns#"
   xmlns:svg="http://www.w3.org/2000/svg"
   xmlns="http://www.w3.org/2000/svg"
   xmlns:sodipodi="http://sodipodi.sourceforge.net/DTD/sodipodi-0.dtd"
   xmlns:inkscape="http://www.inkscape.org/namespaces/inkscape"
   viewBox="0 0 500 200"
   id="svg20"
   height="200"
   width="500"
   version="1.1"
   sodipodi:docname="pema.svg"
   inkscape:version="0.92.1 r15371">
  <sodipodi:namedview
     pagecolor="#ffffff"
     bordercolor="#666666"
     borderopacity="1"
     objecttolerance="10"
     gridtolerance="10"
     guidetolerance="10"
     inkscape:pageopacity="0"
     inkscape:pageshadow="2"
     inkscape:window-width="1920"
     inkscape:window-height="1016"
     id="namedview14"
     showgrid="false"
     inkscape:zoom="0.624"
     inkscape:cx="172.22974"
     inkscape:cy="104.71097"
     inkscape:window-x="0"
     inkscape:window-y="27"
     inkscape:window-maximized="1"
     inkscape:current-layer="svg20" />
  <metadata
     id="metadata26">
    <rdf:RDF>
      <cc:Work
         rdf:about="">
        <dc:format>image/svg+xml</dc:format>
        <dc:type
           rdf:resource="http://purl.org/dc/dcmitype/StillImage" />
        <dc:title></dc:title>
      </cc:Work>
    </rdf:RDF>
  </metadata>
  <defs
     id="defs24" />
  <path
     id="path2"
     style="fill:#000000;fill-rule:evenodd;stroke-width:0.97762197"
     d="M 14.796876,173.43507 5.0690488,157.06303 h 4.4361557 l 6.8189125,11.87419 6.419556,-11.87419 h 4.068765 l -9.322115,16.37204 z m 13.477302,0 v -16.37204 h 17.250237 v 2.89132 H 32.228854 v 3.56852 h 7.744233 v 2.81993 h -7.744233 v 4.02693 h 13.498222 v 3.06534 z m 20.087296,0 v -16.37204 h 3.95458 v 13.3067 h 12.604773 v 3.06534 z m 17.957743,0 v -16.37204 h 3.954676 v 6.6146 l 9.379112,-6.6146 h 5.678225 l -11.122117,7.58282 12.364176,8.78922 H 80.375367 L 70.273893,166.0459 v 7.38917 z m 24.086161,-3.13631 H 103.36512 V 160.07049 H 90.405378 Z m -3.916351,-9.37647 c 0,-1.49068 0.285169,-2.50399 0.855517,-3.04607 0.570338,-0.5419 1.672907,-0.81319 3.320883,-0.81319 h 12.439943 c 1.6605,0 2.76931,0.27129 3.3333,0.81319 0.56428,0.54208 0.8431,1.55539 0.8431,3.04607 v 8.6409 c 0,1.49703 -0.28517,2.5165 -0.86187,3.05868 -0.5767,0.54219 -1.67955,0.8132 -3.31453,0.8132 H 90.665427 c -1.647976,0 -2.750545,-0.27101 -3.320883,-0.8132 -0.570348,-0.54218 -0.855517,-1.56165 -0.855517,-3.05868 z m 28.072013,9.37647 h 12.95976 v -10.22827 h -12.95976 z m -3.91635,-9.37647 c 0,-1.49068 0.28517,-2.50399 0.85552,-3.04607 0.57035,-0.5419 1.67281,-0.81319 3.32079,-0.81319 h 12.44004 c 1.66049,0 2.76931,0.27129 3.3333,0.81319 0.56428,0.54208 0.8431,1.55539 0.8431,3.04607 v 8.6409 c 0,1.49703 -0.28517,2.5165 -0.86187,3.05868 -0.5768,0.54219 -1.67956,0.8132 -3.31453,0.8132 H 114.821 c -1.64798,0 -2.75044,-0.27101 -3.32079,-0.8132 -0.57035,-0.54218 -0.85552,-1.56165 -0.85552,-3.05868 z m 24.54213,12.51278 v -16.37204 h 14.44271 c 1.34999,0 2.3196,0.25184 2.90881,0.74886 0.59585,0.49683 0.89374,1.30347 0.89374,2.42636 v 1.96825 c 0,0.74211 -0.23453,1.35498 -0.7035,1.83263 -0.47541,0.48403 -1.15349,0.80009 -2.04695,0.96785 0.90616,0.1486 1.60976,0.49712 2.1103,1.04547 0.50064,0.54865 0.75424,1.23914 0.75424,2.07168 v 2.0971 c 0,1.07138 -0.41198,1.87145 -1.24236,2.4072 -0.83011,0.53563 -2.07852,0.80664 -3.75163,0.80664 z m 12.643,-13.70685 h -8.78365 v 3.87872 h 8.78365 c 0.67808,0 1.14069,-0.0905 1.38793,-0.26484 0.24694,-0.17421 0.37384,-0.47757 0.37384,-0.90978 v -1.54864 c 0,-0.4325 -0.12044,-0.72941 -0.36133,-0.89717 -0.24059,-0.17421 -0.70966,-0.25829 -1.40044,-0.25829 z m 0,6.58242 h -8.78365 v 4.17533 h 8.78365 c 0.74143,0 1.24207,-0.10969 1.50808,-0.32292 0.2664,-0.21282 0.39926,-0.58695 0.39926,-1.12915 v -1.25174 c 0,-0.54219 -0.13286,-0.92307 -0.39926,-1.14245 -0.26601,-0.21938 -0.76665,-0.32907 -1.50808,-0.32907 z m 23.41414,-6.24015 h -10.56418 v 10.22827 h 10.56418 v -3.47829 l 3.95458,0.81309 v 1.92963 c 0,1.48403 -0.29153,2.50389 -0.87458,3.05223 -0.57651,0.54864 -1.69197,0.81965 -3.33975,0.81965 h -10.04449 c -1.62245,0 -2.72521,-0.27101 -3.30172,-0.8132 -0.58305,-0.54218 -0.87468,-1.56165 -0.87468,-3.05868 v -8.6409 c 0,-1.49068 0.28528,-2.50399 0.86197,-3.04607 0.57671,-0.5419 1.67927,-0.81319 3.31443,-0.81319 h 10.04449 c 1.66049,0 2.77576,0.27129 3.35246,0.81319 0.57669,0.54208 0.86187,1.55539 0.86187,3.04607 v 1.58727 l -3.95458,0.58726 z m 7.36843,13.36458 v -16.37204 h 3.95459 v 6.221 h 12.23738 v -6.221 h 3.91635 v 16.37204 h -3.91635 v -6.8986 h -12.23738 v 6.8986 z m 27.79956,-3.13631 h 12.95976 v -10.22827 h -12.95976 z m -3.91635,-9.37647 c 0,-1.49068 0.28517,-2.50399 0.85552,-3.04607 0.57035,-0.5419 1.67291,-0.81319 3.32088,-0.81319 h 12.43995 c 1.66049,0 2.76931,0.27129 3.3333,0.81319 0.56428,0.54208 0.8431,1.55539 0.8431,3.04607 v 8.6409 c 0,1.49703 -0.28517,2.5165 -0.86187,3.05868 -0.57669,0.54219 -1.67956,0.8132 -3.31453,0.8132 H 206.672 c -1.64797,0 -2.75053,-0.27101 -3.32088,-0.8132 -0.57035,-0.54218 -0.85552,-1.56165 -0.85552,-3.05868 z m 28.49681,9.44744 h 5.05069 c 2.75659,0 4.68974,-0.4065 5.78586,-1.22614 1.10285,-0.81954 1.65413,-2.20053 1.65413,-4.14277 0,-1.68433 -0.45636,-2.94293 -1.37532,-3.76872 -0.91251,-0.82609 -2.31931,-1.23914 -4.21433,-1.23914 h -6.90103 z m -3.95468,3.06534 v -16.37204 h 10.82423 c 3.10512,0 5.48817,0.70349 7.15473,2.1104 1.66675,1.40034 2.49684,3.4072 2.49684,6.02076 0,2.74273 -0.88073,4.80766 -2.64251,6.18239 -1.76813,1.37444 -4.42971,2.05849 -7.99783,2.05849 z" />
  <path
     id="path4"
     style="fill:#000000;fill-rule:evenodd;stroke-width:0.97762197"
     d="m 346.97074,170.36973 h 4.83561 c 2.63918,0 4.49002,-0.4065 5.5395,-1.22614 1.05582,-0.81954 1.58364,-2.20053 1.58364,-4.14277 0,-1.68433 -0.43689,-2.94293 -1.31666,-3.76872 -0.87379,-0.82609 -2.22067,-1.23914 -4.03494,-1.23914 h -6.60715 z m -3.78624,3.06534 v -16.37204 h 10.36319 c 2.97294,0 5.25452,0.70349 6.85009,2.1104 1.59578,1.40034 2.39048,3.4072 2.39048,6.02076 0,2.74273 -0.84319,4.80766 -2.52989,6.18239 -1.69285,1.37444 -4.24112,2.05849 -7.65731,2.05849 z m 34.63109,-13.5518 h -8.57336 v 4.5302 h 8.57336 c 0.64923,0 1.09825,-0.10345 1.3408,-0.30336 0.24284,-0.20011 0.36426,-0.54218 0.36426,-1.01974 v -1.88417 c 0,-0.47767 -0.12142,-0.81964 -0.36426,-1.01947 -0.24255,-0.20022 -0.69157,-0.30346 -1.3408,-0.30346 z m -12.26838,13.5518 v -16.37204 h 13.86424 c 1.26789,0 2.19036,0.25184 2.75445,0.74886 0.57055,0.49683 0.85542,1.30992 0.85542,2.43291 v 3.84586 c 0,1.10998 -0.28487,1.91017 -0.85542,2.4072 -0.56409,0.49027 -1.48656,0.73565 -2.75445,0.73565 h -2.11166 l 7.32347,6.20156 h -5.38787 l -6.45582,-6.20156 h -3.53734 v 6.20156 z m 24.14042,-3.13631 h 12.40789 v -10.22827 h -12.40789 z m -3.74957,-9.37647 c 0,-1.49068 0.27295,-2.50399 0.81905,-3.04607 0.5461,-0.5419 1.60164,-0.81319 3.17943,-0.81319 h 11.91026 c 1.58972,0 2.65141,0.27129 3.19136,0.81319 0.54023,0.54208 0.80721,1.55539 0.80721,3.04607 v 8.6409 c 0,1.49703 -0.27304,2.5165 -0.82521,3.05868 -0.55216,0.54219 -1.60798,0.8132 -3.17336,0.8132 h -11.91026 c -1.57779,0 -2.63333,-0.27101 -3.17943,-0.8132 -0.5461,-0.54218 -0.81905,-1.56165 -0.81905,-3.05868 z m 38.59281,-0.8518 h -11.71622 v 10.22827 h 11.71622 v -3.48483 h -6.11611 v -2.91049 h 9.79313 v 5.65975 c 0,1.49703 -0.27305,2.5165 -0.82521,3.05868 -0.55226,0.54219 -1.60809,0.8132 -3.17336,0.8132 h -11.14577 c -1.56557,0 -2.6212,-0.27101 -3.17336,-0.8132 -0.55216,-0.54218 -0.82521,-1.56165 -0.82521,-3.05868 v -8.6409 c 0,-1.49068 0.27305,-2.50399 0.82521,-3.04607 0.55216,-0.5419 1.60779,-0.81319 3.17336,-0.81319 h 11.14577 c 1.55334,0 2.60898,0.26474 3.16114,0.79403 0.55823,0.52918 0.83743,1.49057 0.83743,2.87147 v 0.43905 l -3.67702,0.65804 z m 7.19402,13.36458 v -16.37204 h 16.51565 v 2.89132 h -12.72942 v 3.56852 h 7.41439 v 2.81993 h -7.41439 v 4.02693 h 12.92338 v 3.06534 z m 31.50025,-13.5518 h -8.57335 v 4.5302 h 8.57335 c 0.64924,0 1.09826,-0.10345 1.3408,-0.30336 0.24285,-0.20011 0.36427,-0.54218 0.36427,-1.01974 v -1.88417 c 0,-0.47767 -0.12142,-0.81964 -0.36427,-1.01947 -0.24254,-0.20022 -0.69156,-0.30346 -1.3408,-0.30346 z m -12.26837,13.5518 v -16.37204 h 13.86414 c 1.26798,0 2.19046,0.25184 2.75455,0.74886 0.57044,0.49683 0.85542,1.30992 0.85542,2.43291 v 3.84586 c 0,1.10998 -0.28498,1.91017 -0.85542,2.4072 -0.56409,0.49027 -1.48657,0.73565 -2.75455,0.73565 h -2.11166 l 7.32356,6.20156 h -5.38787 l -6.45592,-6.20156 h -3.53723 v 6.20156 z m 20.76078,0 v -16.37204 h 3.73168 v 16.37204 z m 7.69779,0 v -16.37204 h 16.51555 v 2.89132 h -12.72942 v 3.56852 h 7.41449 v 2.81993 h -7.41449 v 4.02693 h 12.92348 v 3.06534 z" />
  <path
     id="path6"
     style="fill:#000000;fill-rule:evenodd;stroke-width:0.97762197"
     d="M 74.163263,80.719255 H 30.134396 V 93.251 h 44.028867 c 3.152635,0 5.193229,-0.274223 6.14631,-0.821594 0.246168,-0.141363 0.426732,-0.329263 0.540335,-0.561742 0.16883,-0.345491 0.253787,-0.821593 0.253787,-1.425959 v -6.976212 c 0,-0.585303 -0.08187,-1.042244 -0.244505,-1.369551 -0.110467,-0.222898 -0.294262,-0.408549 -0.549617,-0.555094 -0.421355,-0.241961 -1.085943,-0.434064 -1.995034,-0.574744 -1.061111,-0.164338 -2.444055,-0.246849 -4.151276,-0.246849 z M 5.1241862,132.17239 V 67.096972 c 0,-1.179892 1.1801861,-2.359979 2.3599798,-2.359979 h 75.80823 c 3.656692,0 6.837874,0.262393 9.546578,0.789332 2.837355,0.552259 5.175722,1.406015 7.01727,2.562836 h 0.0084 c 1.947616,1.234932 3.414046,2.857784 4.398026,4.862985 0.94702,1.930705 1.42117,4.183342 1.42117,6.752239 V 94.24485 c 0,5.255213 -1.94018,9.11349 -5.819196,11.5728 h -0.0084 c -1.841937,1.15721 -4.179915,2.01097 -7.01727,2.56323 -2.708704,0.52694 -5.889886,0.78972 -9.546578,0.78972 h -53.158 v 23.00179 c 0,1.17979 -1.180185,2.35998 -2.359978,2.35998 H 7.484166 c -1.1797937,0 -2.3599798,-1.18019 -2.3599798,-2.35998 z" />
  <path
     id="path8"
     style="fill:#000000;fill-rule:evenodd;stroke-width:0.97762197"
     d="M 119.07042,132.17239 V 67.096972 c 0,-1.179892 1.18019,-2.359979 2.35998,-2.359979 h 90.7464 c 1.17979,0 2.35998,1.180087 2.35998,2.359979 v 11.073524 c 0,1.179795 -1.18048,2.35998 -2.35998,2.35998 h -67.75321 v 9.820409 h 38.56308 c 1.17989,0 2.35998,1.180185 2.35998,2.359978 v 11.073917 c 0,1.1798 -1.18009,2.35998 -2.35998,2.35998 h -38.56308 v 11.41707 h 68.58302 c 1.17988,0 2.35997,1.18018 2.35997,2.35998 v 12.25058 c 0,1.17979 -1.18009,2.35998 -2.35997,2.35998 H 121.4304 c -1.17979,0 -2.35998,-1.18019 -2.35998,-2.35998 z" />
  <path
     id="path10"
     style="fill:#ffcb00;fill-rule:evenodd;stroke-width:0.97762197"
     d="M 234.84893,132.17239 V 67.096972 c 0,-1.179892 1.18018,-2.359979 2.35998,-2.359979 h 16.68389 c 0.31998,0 1.37983,0.425363 1.61318,0.645425 l 40.1223,37.798882 40.47883,-37.780404 c 0.23756,-0.228666 1.30278,-0.663903 1.63175,-0.663903 h 16.51252 c 1.17979,0 2.35997,1.180087 2.35997,2.359979 v 65.075418 c 0,1.17979 -1.18018,2.35998 -2.35997,2.35998 h -19.11681 c -1.17979,0 -2.35999,-1.18019 -2.35999,-2.35998 V 93.073952 c -0.12543,0.137161 -0.24841,0.269727 -0.37032,0.39799 -2.9e-4,2.94e-4 -0.064,0.06404 -0.0643,0.06433 L 299.0576,126.04259 c -0.24011,0.23444 -1.3063,0.6732 -1.64094,0.6732 h -4.12068 c -0.33532,0 -1.40084,-0.43817 -1.64093,-0.6732 l -34.62366,-32.632431 -0.0274,-0.02737 c -0.26787,-0.269726 -0.51815,-0.52381 -0.75121,-0.764207 v 39.553808 c 0,1.17979 -1.18018,2.35998 -2.35998,2.35998 h -16.68393 c -1.1798,0 -2.35998,-1.18019 -2.35998,-2.35998 z" />
  <path
     id="path12"
     style="fill:#ffcb00;fill-rule:evenodd;stroke-width:0.97762197"
     d="m 335.27006,46.947694 -34.80647,35.196249 c -2.5995,2.629412 -6.86104,2.665193 -9.47463,0.07958 L 256.2,47.815627 c -1.31305,-1.298185 -1.96903,-3.009805 -1.96903,-4.720252 l -1e-4,-0.0088 c 4.9e-4,-1.705754 0.65423,-3.425197 1.96052,-4.746355 L 290.99787,3.1439724 c 2.59949,-2.62902107 6.86105,-2.66460652 9.475,-0.079579 l 34.78859,34.4078936 c 1.31304,1.298184 1.96913,3.010098 1.96903,4.720253 l 1e-4,0.0088 c -3.9e-4,1.705754 -0.65423,3.425196 -1.96053,4.746354 z" />
  <path
     id="path14"
     style="fill:#ffcb00;fill-rule:evenodd;stroke-width:0.97762197"
     d="m 319.8165,120.95739 c 1.4241,-1.42409 4.02829,-0.34549 4.02829,1.66832 v 73.32887 c 0,1.1795 -1.18008,2.35999 -2.35998,2.35999 h -18.235 c -1.17979,0 -2.35998,-1.1802 -2.35998,-2.35999 V 140.8611 c 0,-0.3456 0.44746,-1.42411 0.69168,-1.66841 z" />
  <path
     id="path16"
     style="fill:#ffcb00;fill-rule:evenodd;stroke-width:0.97762197"
     d="m 271.01556,120.95739 18.23539,18.2353 c 0.24421,0.2443 0.69157,1.32281 0.69157,1.66841 v 55.09348 c 0,1.17979 -1.18009,2.35999 -2.35997,2.35999 h -18.2353 c -1.17979,0 -2.35998,-1.18049 -2.35998,-2.35999 v -73.32887 c 0,-2.01381 2.60429,-3.09241 4.02829,-1.66832 z" />
  <path
     id="path18"
     style="fill:#000000;fill-rule:evenodd;stroke-width:0.97762197"
     d="m 417.17504,103.8411 h 29.51518 L 432.15015,83.704033 Z m -46.21278,26.89311 50.13822,-65.075417 c 0.2802,-0.363969 1.40406,-0.9218 1.86227,-0.9218 h 19.8603 c 0.45185,0 1.57407,0.555289 1.85308,0.912609 l 50.82471,65.075408 c 1.17315,1.50212 0.0462,3.80736 -1.85298,3.80736 h -23.15205 c -0.47043,0 -1.59763,-0.57201 -1.88075,-0.94967 l -9.93381,-13.25489 h -53.80802 l -9.59302,13.22722 c -0.28566,0.39389 -1.42185,0.97734 -1.90812,0.97734 h -20.54756 c -1.89444,0 -3.02173,-2.29312 -1.86227,-3.79816 z" />
</svg>
