<?xml version="1.0" encoding="UTF-8" standalone="no"?>
<svg
   xmlns:dc="http://purl.org/dc/elements/1.1/"
   xmlns:cc="http://creativecommons.org/ns#"
   xmlns:rdf="http://www.w3.org/1999/02/22-rdf-syntax-ns#"
   xmlns:svg="http://www.w3.org/2000/svg"
   xmlns="http://www.w3.org/2000/svg"
   xml:space="preserve"
   enable-background="new 0 0 256 256"
   viewBox="0 0 256 256"
   height="256px"
   width="256px"
   y="0px"
   x="0px"
   id="Layer_1"
   version="1.1"><metadata
     id="metadata4544"><rdf:RDF><cc:Work
         rdf:about=""><dc:format>image/svg+xml</dc:format><dc:type
           rdf:resource="http://purl.org/dc/dcmitype/StillImage" /><dc:title></dc:title></cc:Work></rdf:RDF></metadata><defs
     id="defs4542" /><path
     id="path4548"
     d="M 61.921056,251.57723 C 56.989576,246.12634 50.519418,235.77845 43.136171,221.5341 39.678796,214.86384 34.778614,205.69526 32.246878,201.15951 18.735226,176.95247 0.17045826,140.51295 0.41853142,138.68578 c 0.18647712,-1.37347 1.05305958,-2.14074 2.63690238,-2.33469 2.4105782,-0.29522 38.2672212,15.00886 59.6968772,25.47939 9.238795,4.51407 11.854083,5.40785 14.30221,4.88778 3.439799,-0.73072 19.68125,-17.65624 66.149449,-68.93563 53.94924,-59.535032 66.57191,-72.140845 91.18003,-91.0583714 7.95921,-6.11864327 8.78456,-6.52477199 12.07273,-5.94064425 1.94121,0.34484565 4.84415,1.46765475 6.45101,2.49513165 4.6963,3.0029978 3.97228,5.3875069 -5.06112,16.668461 C 199.69495,80.07924 127.8467,173.16974 113.60121,193.88287 c -3.30298,4.80258 -12.77344,19.42861 -21.04545,32.5023 -8.271998,13.07371 -16.104469,24.97099 -17.405483,26.43846 -1.812562,2.04445 -3.221248,2.6681 -6.02661,2.6681 -3.076235,0 -4.226914,-0.62539 -7.202611,-3.9145 z"
     style="opacity:1;fill:#57b67c;fill-opacity:1;fill-rule:nonzero;stroke:none;stroke-width:0.35760862;stroke-linejoin:round;stroke-miterlimit:4;stroke-dasharray:none;stroke-dashoffset:0;stroke-opacity:1;paint-order:fill markers stroke" /></svg>