<?xml version="1.0" encoding="UTF-8" standalone="no"?>
<svg
   xmlns:dc="http://purl.org/dc/elements/1.1/"
   xmlns:cc="http://creativecommons.org/ns#"
   xmlns:rdf="http://www.w3.org/1999/02/22-rdf-syntax-ns#"
   xmlns:svg="http://www.w3.org/2000/svg"
   xmlns="http://www.w3.org/2000/svg"
   id="svg4549"
   version="1.1"
   viewBox="0 0 60 60">
  <metadata
     id="metadata4555">
    <rdf:RDF>
      <cc:Work
         rdf:about="">
        <dc:format>image/svg+xml</dc:format>
        <dc:type
           rdf:resource="http://purl.org/dc/dcmitype/StillImage" />
        <dc:title></dc:title>
      </cc:Work>
    </rdf:RDF>
  </metadata>
  <defs
     id="defs4553" />
  <g
     style="fill:#c50000;fill-opacity:1"
     id="g4547"
     fill-rule="evenodd"
     fill="none">
    <path
       style="fill:#c50000;fill-opacity:1"
       id="path4545"
       fill="#7985a3"
       fill-rule="nonzero"
       transform="matrix(.70711.70711-.70711.70711 29.854-12.07)"
       d="m29.5 0c-16.293 0-29.5 13.207-29.5 29.5 0 16.293 13.207 29.501 29.5 29.501 16.293 0 29.5-13.208 29.5-29.501 0-16.293-13.207-29.5-29.5-29.5m16.562 30.13c0 2.311-1.873 4.184-4.184 4.184h-8.433v8.432c0 2.311-1.873 4.185-4.184 4.185h-.043c-2.311 0-4.185-1.873-4.185-4.185v-8.432h-9.03c-2.311 0-4.184-1.873-4.184-4.184v-.043c0-2.311 1.873-4.184 4.184-4.184h9.03v-9.03c0-2.311 1.873-4.184 4.184-4.184h.043c2.311 0 4.185 1.873 4.185 4.184v9.03h8.433c2.311 0 4.184 1.873 4.184 4.184v.043" />
  </g>
</svg>
