<?xml version="1.0" encoding="UTF-8" standalone="no"?>
<svg
   xmlns:dc="http://purl.org/dc/elements/1.1/"
   xmlns:cc="http://creativecommons.org/ns#"
   xmlns:rdf="http://www.w3.org/1999/02/22-rdf-syntax-ns#"
   xmlns:svg="http://www.w3.org/2000/svg"
   xmlns="http://www.w3.org/2000/svg"
   id="svg2"
   height="200"
   width="200"
   version="1.1">
  <metadata
     id="metadata2877">
    <rdf:RDF>
      <cc:Work
         rdf:about="">
        <dc:format>image/svg+xml</dc:format>
        <dc:type
           rdf:resource="http://purl.org/dc/dcmitype/StillImage" />
        <dc:title></dc:title>
      </cc:Work>
    </rdf:RDF>
  </metadata>
  <defs
     id="defs4" />
  <g
     transform="matrix(0.36135936,0,0,0.32686104,592.5294,60.129602)"
     id="g6676">
    <ellipse
       id="path7073"
       style="fill:#000000;fill-opacity:1;stroke:none;stroke-width:2.07698512;stroke-linecap:round;stroke-linejoin:round;stroke-miterlimit:4;stroke-dasharray:none;stroke-dashoffset:0;stroke-opacity:1"
       cx="-1539.3048"
       cy="-107.53521"
       rx="42.692989"
       ry="43.176472" />
    <g
       id="g6697">
      <path
         id="path7089"
         d="m -1474.0624,411.58353 c -2.9557,-5.23711 -5.1323,-9.71091 -4.8371,-9.94178 0.2952,-0.23087 70.027,-35.46589 154.9595,-78.29995 168.0551,-84.75537 167.5178,-84.44178 174.607,-101.90827 3.9242,-9.66864 6.3994,-11.90418 10.4225,-9.41325 1.6398,1.01535 2.3597,4.59152 2.2792,11.32263 -0.143,11.9384 -5.5164,25.13207 -13.1762,32.35113 -3.0537,2.87804 -62.5105,34.2032 -136.3714,71.84801 -72.0265,36.70983 -142.5565,72.77929 -156.7334,80.15433 l -25.7762,13.40914 z m 86.5125,-95.05794 c -3.3791,-1.83667 -122.9467,-149.7914 -153.8787,-190.41179 -7.7563,-10.18567 -13.7103,-21.11346 -16.7228,-30.692395 -3.8547,-12.256621 -11.7488,-120.327177 -9.4086,-128.802714 2.3281,-8.431532 8.7026,-15.684708 16.4842,-18.756234 3.5112,-1.385955 43.9747,-11.167231 89.9189,-21.736185 l 83.5347,-19.216279 8.2163,4.11639 c 11.4363,5.72969 15.7508,14.155124 12.8978,25.186994 -1.2628,4.882531 -4.0998,9.773555 -7.5177,12.960222 -4.9914,4.653757 -9.8106,6.096915 -53.1103,15.904329 -26.1914,5.932402 -48.1669,11.292923 -48.8344,11.912301 -1.3035,1.209567 -26.8486,110.438106 -26.8486,114.802106 0,1.43878 30.5639,42.766235 67.9199,91.838775 37.3559,49.07259 69.4999,92.32008 71.4311,96.10557 7.0152,13.75073 3.192,30.78989 -8.2342,36.69862 -6.3048,3.26034 -19.9279,3.30791 -25.8476,0.0904 z"
         style="fill:#000000;stroke:none;stroke-width:3.67627287;stroke-opacity:0.98818898" />
    </g>
    <path
       id="path6686"
       d="m -1453.8938,126.22151 c -2.4299,-1.65113 -4.4179,-3.52692 -4.4179,-4.16843 0,-0.64149 50.0737,-65.907112 111.275,-145.034688 61.2012,-79.127582 111.3394,-143.968082 111.418,-144.089982 0.079,-0.12191 4.3583,-0.60362 9.5101,-1.07047 l 9.3671,-0.84883 -9.9112,12.8894 c -96.6558,125.699642 -220.1393,284.45842 -221.6271,284.93885 -0.6578,0.21242 -3.1841,-0.96471 -5.614,-2.61585 z"
       style="opacity:1;fill:#800000;fill-opacity:1;fill-rule:nonzero;stroke:none;stroke-width:1.50218546;stroke-linejoin:round;stroke-miterlimit:4;stroke-dasharray:none;stroke-dashoffset:0;stroke-opacity:1;paint-order:fill markers stroke" />
    <path
       id="path7089-7"
       d="m -1532.2072,192.29636 -19.6869,-25.79567 8.0218,-5.70322 c 4.4119,-3.13678 8.5822,-5.49905 9.2673,-5.2495 0.6851,0.24962 9.7294,11.55107 20.0984,25.11449 l 18.8528,24.66077 -5.5564,4.79556 c -11.0094,9.5018 -9.4666,10.38889 -30.997,-17.82243 z"
       style="fill:#800000;stroke:none;stroke-width:3.67627287;stroke-opacity:0.98818898" />
  </g>
</svg>
