<?xml version="1.0" encoding="UTF-8" standalone="no"?>
<svg
   xmlns:dc="http://purl.org/dc/elements/1.1/"
   xmlns:cc="http://creativecommons.org/ns#"
   xmlns:rdf="http://www.w3.org/1999/02/22-rdf-syntax-ns#"
   xmlns:svg="http://www.w3.org/2000/svg"
   xmlns="http://www.w3.org/2000/svg"
   enable-background="new 0 0 774 774"
   xml:space="preserve"
   viewBox="0 0 774 774"
   y="0"
   x="0"
   id="Layer_1"
   version="1.1"><metadata
     id="metadata4644"><rdf:RDF><cc:Work
         rdf:about=""><dc:format>image/svg+xml</dc:format><dc:type
           rdf:resource="http://purl.org/dc/dcmitype/StillImage" /><dc:title></dc:title></cc:Work></rdf:RDF></metadata><defs
     id="defs4642" /><g
     fill="#47aa42"
     id="icon--checkmark"><path
       id="path4636"
       d="M 387,0 C 173.3,0 0,173.3 0,387 0,600.7 173.3,774 387,774 600.7,774 774,600.7 774,387 774,173.3 600.7,0 387,0 Z M 591.27839,307.97839 C 506.38118,392.52485 405.11172,484.75629 333.76017,555.43771 283.0432,593.15628 145.68502,447.00118 175.24237,421.41864 209.84025,382.72119 235,394.2 249.1,408.3 L 306.9,457.9 524,240.7 c 14.3,-14.3 48.87881,-6.10085 63.17881,8.19915 14.2,14.3 18.29958,44.77924 4.09958,59.07924 z" /></g></svg>