<?xml version="1.0" encoding="UTF-8" standalone="no"?>
<svg
   xmlns:dc="http://purl.org/dc/elements/1.1/"
   xmlns:cc="http://creativecommons.org/ns#"
   xmlns:rdf="http://www.w3.org/1999/02/22-rdf-syntax-ns#"
   xmlns:svg="http://www.w3.org/2000/svg"
   xmlns="http://www.w3.org/2000/svg"
   id="svg4940"
   version="1.1"
   viewBox="0 0 100 100"
   height="100mm"
   width="100mm">
  <defs
     id="defs4934" />
  <metadata
     id="metadata4937">
    <rdf:RDF>
      <cc:Work
         rdf:about="">
        <dc:format>image/svg+xml</dc:format>
        <dc:type
           rdf:resource="http://purl.org/dc/dcmitype/StillImage" />
        <dc:title></dc:title>
      </cc:Work>
    </rdf:RDF>
  </metadata>
  <g
     transform="translate(0,-197)"
     id="layer1">
    <g
       transform="matrix(2.5581489,0,0,2.5581489,125.39031,565.91655)"
       id="g272">
      <g
         transform="matrix(1.2899146,0,0,1.2899146,-227.2735,-141.70628)"
         id="email">
        <g
           transform="translate(124.81166,-16.330498)"
           style="isolation:isolate"
           id="g182">
          <path
             style="fill:#414141"
             d="M 35.48,42.92 A 17.64,17.64 0 0 1 27.61,44.47 13.06,13.06 0 0 1 14.19,30.93 c 0,-8.77 6.36,-16.38 16.08,-16.38 7.57,0 13,5.2 13,12.43 0,6.28 -3.53,10.23 -8.17,10.23 A 3.37,3.37 0 0 1 31.4,33.9 h -0.09 a 6.31,6.31 0 0 1 -5.55,3.31 c -2.79,0 -4.82,-2.06 -4.82,-5.59 A 9.82,9.82 0 0 1 31,21.6 a 12.08,12.08 0 0 1 5.12,1.07 l -1.29,8 c -0.43,2.54 -0.13,3.7 1.08,3.74 1.85,0 4.17,-2.32 4.17,-7.27 0,-5.59 -3.61,-9.93 -10.28,-9.93 -6.67,0 -12.34,5.12 -12.34,13.33 0,7.18 4.6,11.27 11,11.27 a 14,14 0 0 0 6.23,-1.38 z M 31.65,25.17 A 5.29,5.29 0 0 0 30.32,25 c -2.84,0 -5.07,2.79 -5.07,6.11 0,1.63 0.73,2.67 2.15,2.67 1.59,0 3.27,-2 3.66,-4.51 z"
             id="path180" />
        </g>
      </g>
    </g>
  </g>
</svg>
