<?xml version="1.0" encoding="UTF-8" standalone="no"?>
<svg
   xmlns:dc="http://purl.org/dc/elements/1.1/"
   xmlns:cc="http://creativecommons.org/ns#"
   xmlns:rdf="http://www.w3.org/1999/02/22-rdf-syntax-ns#"
   xmlns:svg="http://www.w3.org/2000/svg"
   xmlns="http://www.w3.org/2000/svg"
   id="svg4940"
   version="1.1"
   viewBox="0 0 100 100"
   height="100mm"
   width="100mm">
  <defs
     id="defs4934" />
  <metadata
     id="metadata4937">
    <rdf:RDF>
      <cc:Work
         rdf:about="">
        <dc:format>image/svg+xml</dc:format>
        <dc:type
           rdf:resource="http://purl.org/dc/dcmitype/StillImage" />
        <dc:title></dc:title>
      </cc:Work>
    </rdf:RDF>
  </metadata>
  <g
     transform="translate(0,-197)"
     id="layer1">
    <g
       transform="matrix(2.5581489,0,0,2.5581489,125.39031,565.91655)"
       id="g272">
      <g
         style="fill:#414141;fill-opacity:1"
         transform="matrix(0.0398438,0,0,0.04715356,-49.382363,-148.16718)"
         id="g4905">
        <path
           style="fill:#414141;fill-opacity:1"
           d="m 74.1,743.6 c 7.1,-1.9 142.5,-46.7 142.5,-46.7 0,0 -13,-41 -14.6,-48.8 -2,-9.1 -5.3,-9.3 -8,-9.7 h -0.7 L 53.8,637.2 c 0,-0.1 15.6,79.5 20.3,106.4 z"
           id="path4885" />
        <path
           style="fill:#414141;fill-opacity:1"
           d="m 404.6,695.8 c 0,0 -317.7,131.7 -325.6,134.2 -3.2,20.4 -18.2,84.3 -18.2,84.3 H 196 c 0,0 11.5,0.2 13.7,-8.9 9,-37.1 15.1,-70.7 15.6,-72 1,-3.3 2.9,-8.3 8.8,-11.3 3.1,-1.6 233.4,-118.3 233.4,-118.3 0,0 0,-23.2 0,-39.6 h -62.9 z"
           id="path4887" />
        <path
           style="fill:#414141;fill-opacity:1"
           d="m 144.9,391.9 c 0,-14.2 -0.1,-23.9 -0.2,-30.3 C 122.4,350.5 51.6,314 36.1,306.4 36,320.6 36,336.5 36,336.5 v 0.1 c -0.1,0.4 -0.1,0.8 -0.1,1.3 0,4.9 1.1,15.2 6.7,18.4 7.7,4.4 86.1,46.1 102.5,55 -0.2,-2.8 -0.2,-5.7 -0.2,-8.6 0,-0.2 0,-0.3 0,-0.5 0,-3.7 0,-7 0,-10.3 z"
           id="path4889" />
        <path
           style="fill:#414141;fill-opacity:1"
           d="m 989.7,389.8 c -0.3,-1.2 -1.9,-2.5 -4.5,-3.9 -11.4,-0.5 -62.6,-2.9 -117.9,-5.6 -2.3,42.9 -6.3,116 -7.3,120.9 -0.6,2.9 -7.2,15.9 -16.2,32.3 2.3,1.6 4.4,2.9 5.9,3.8 5.3,3 15.4,4.5 19.9,-0.6 2.9,-3.5 19.5,-23.1 38.7,-46 27.3,-32.6 58.3,-69.4 65.7,-77.8 l 5.5,-6.1 c 7.6,-8.4 10.4,-11.8 10.4,-15.3 0.1,-0.5 0,-1.1 -0.2,-1.7 z"
           id="path4891" />
        <path
           style="fill:#414141;fill-opacity:1"
           d="m 376.2,575.2 c -13.8,21.6 -32.3,33.6 -52.3,33.6 -9.4,0 -18.5,-2.8 -26.8,-7.9 0,13.8 0,26 0,30.4 12.4,0 157.9,0 170.3,0 0,-3.3 0,-11.1 0,-20.7 -25.5,-13 -55.5,-28.2 -86.5,-44 -1.5,3 -3,5.9 -4.7,8.6 z"
           id="path4893" />
        <path
           style="fill:#414141;fill-opacity:1"
           d="m 364.3,567.8 c 1.5,-2.4 2.9,-4.9 4.2,-7.5 -35.4,-18 -71.3,-36.3 -102.7,-52.2 3,48.7 27.9,86.8 58.1,86.8 15.1,-0.1 29.3,-9.6 40.4,-27.1 z"
           id="path4895" />
        <path
           style="fill:#414141;fill-opacity:1"
           d="m 503.8,538.6 -2.7,-1.5 c -5.6,-2.4 -210.9,-103.7 -342.3,-168.6 0,5.8 0,13.4 0,23.1 0,3.3 0,6.8 0,10.6 0,0.1 0,0.3 0,0.5 0,37.7 12.4,42.7 19,45.4 8.8,3.7 289.3,146.7 331.8,168.4 -0.1,-1 -0.1,-2.2 -0.1,-3.4 l 1.9,-70.9 c -2.9,-1 -5.6,-2.5 -7.6,-3.6 z"
           id="path4897" />
        <path
           style="fill:#414141;fill-opacity:1"
           d="m 543.1,505.5 c 15.4,-19.9 86.8,-102.4 90.5,-106.9 2.2,-2.9 33.8,-42.2 88,-39.4 38.1,1.9 165.3,8.1 229.3,11.1 -8.7,-3.9 -16.1,-7.1 -16.1,-7.1 L 840.7,321.4 811.6,308.6 755.3,283.7 C 722.4,269 688.4,253.9 654.8,239.3 l -61.2,-27.2 c -29.3,-13.2 -59.5,-26.7 -89.5,-39.3 -13.5,-5.6 -61.4,-27.5 -74.4,-33.4 -27,-12.1 -54.9,-24.7 -83.8,-33.8 -7.5,-2.3 -41.6,-8.9 -50,-9.4 l -81.4,-4 c -47.4,-2.3 -101.1,-5 -113,-5.7 -36.6,-2.3 -54,0 -60.1,20 -3.4,11.1 -20.9,101.1 -27.1,125.1 -1.6,5.8 -2.3,10.6 -2.3,14.6 0,13.6 8.1,17.4 17.7,21.8 l 4.2,2 c 3.7,1.9 474.4,233.2 483.9,237.6 -0.1,0 -0.1,-0.1 -0.1,-0.1 l 0.1,0.1 v 0 l 3.8,1.9 c 6.4,3.4 11.4,6.1 21.5,-4 z"
           id="path4899" />
        <path
           style="fill:#414141;fill-opacity:1"
           d="m 721,373.1 c -47.5,-2.5 -76.1,33.8 -76.4,34.1 l -0.2,0.2 c -0.9,1 -87.3,105.2 -101.8,123.9 l -0.2,0.4 -0.4,0.3 c -6,6.1 -11.6,9.3 -16.6,10.7 -0.6,26.5 -1.8,70.7 -1.8,70.7 0,0.4 -0.1,0.7 -0.1,1 0,9.7 3.9,15.2 22.3,16.5 11,0.9 185.7,5.9 198.9,5.7 11,-0.2 19.6,-1.1 29.2,-12.3 11.4,-13.4 69.1,-117 72.6,-126.1 0.8,-6 4.2,-66.8 7,-118.7 C 799.1,376.9 744,374.4 721,373.1 Z m 51.2,87.4 c -4.5,13.8 -24.1,81.4 -24.1,81.4 0,0 -2.5,11.9 -8.6,15.7 -6,4.2 -17.5,3.1 -17.5,3.1 -11.3,-0.5 -22.8,-1 -34.1,-1.4 -18.7,-0.6 -64.1,-2.5 -68.1,-2.6 -4.2,0 -12.8,-2 -14.6,-6.5 -2.4,-5.9 -0.1,-13.2 1.6,-19.1 2.2,-7.9 4.7,-15.7 6.9,-23.5 4.7,-16.5 9.4,-32.9 14.5,-49.3 2.4,-8.1 3.1,-16.3 10.2,-22.3 7.5,-6.4 16.9,-5.6 26,-5.4 8.8,0.2 17.7,0.3 26.4,0.5 18.6,0.6 37.1,1.5 55.7,2.3 5.6,0.3 11.1,0.5 16.8,0.9 15.2,0.9 13.5,12.4 8.9,26.2 z"
           id="path4901" />
        <path
           style="fill:#414141;fill-opacity:1"
           d="m 297.1,664.1 c 0,14.2 0,21.9 0,21.9 L 55.3,769.2 54,761.8 C 46,717.2 34,646.6 32,637.1 H 10 c 0,34 0,246.8 0,277.3 h 26.5 c 2.9,-18.4 18.4,-85.9 18.6,-87 l 0.7,-4.2 c 0,0 325.5,-134.3 334.9,-137.4 0,-6.1 0,-9 0,-21.7 z"
           id="path4903" />
      </g>
    </g>
  </g>
</svg>
