<?xml version="1.0" encoding="UTF-8" standalone="no"?>
<svg
   xmlns:dc="http://purl.org/dc/elements/1.1/"
   xmlns:cc="http://creativecommons.org/ns#"
   xmlns:rdf="http://www.w3.org/1999/02/22-rdf-syntax-ns#"
   xmlns:svg="http://www.w3.org/2000/svg"
   xmlns="http://www.w3.org/2000/svg"
   id="svg4940"
   version="1.1"
   viewBox="0 0 100 100"
   height="100mm"
   width="100mm">
  <defs
     id="defs4934" />
  <metadata
     id="metadata4937">
    <rdf:RDF>
      <cc:Work
         rdf:about="">
        <dc:format>image/svg+xml</dc:format>
        <dc:type
           rdf:resource="http://purl.org/dc/dcmitype/StillImage" />
        <dc:title></dc:title>
      </cc:Work>
    </rdf:RDF>
  </metadata>
  <g
     transform="translate(0,-197)"
     id="layer1">
    <g
       transform="matrix(2.5581489,0,0,2.5581489,125.39031,565.91655)"
       id="g272">
      <g
         transform="matrix(1.3394525,0,0,1.3394525,-69.508389,-164.7789)"
         id="instagram">
        <path
           style="fill:#414141"
           d="m 1811,224.62 h -18 a 5.6,5.6 0 0 0 -5.62,5.62 v 18 a 5.6,5.6 0 0 0 5.63,5.62 h 18 a 5.6,5.6 0 0 0 5.62,-5.62 v -18 a 5.6,5.6 0 0 0 -5.63,-5.62 z m 1.62,3.37 h 0.63 v 5 h -5 v -5 h 4.38 z m -14.75,8.25 a 5.07,5.07 0 0 1 8.25,0 5.09,5.09 0 0 1 1,3 5.13,5.13 0 0 1 -10.25,0 5.09,5.09 0 0 1 1.01,-2.99 z m 15.88,12 A 2.77,2.77 0 0 1 1811,251 h -18 a 2.77,2.77 0 0 1 -2.75,-2.75 v -12 h 4.37 a 8,8 0 1 0 14.75,0 h 4.38 v 12 z"
           transform="translate(-1772,-209.25)"
           id="path217" />
      </g>
    </g>
  </g>
</svg>
