<?xml version="1.0" encoding="UTF-8" standalone="no"?>
<svg
   xmlns:dc="http://purl.org/dc/elements/1.1/"
   xmlns:cc="http://creativecommons.org/ns#"
   xmlns:rdf="http://www.w3.org/1999/02/22-rdf-syntax-ns#"
   xmlns:svg="http://www.w3.org/2000/svg"
   xmlns="http://www.w3.org/2000/svg"
   xmlns:sodipodi="http://sodipodi.sourceforge.net/DTD/sodipodi-0.dtd"
   xmlns:inkscape="http://www.inkscape.org/namespaces/inkscape"
   xml:space="preserve"
   viewBox="0 0 300 300"
   height="300"
   width="300"
   y="0px"
   x="0px"
   id="Capa_1"
   version="1.1"
   sodipodi:docname="snowpark-slope.svg"
   inkscape:version="0.92.4 5da689c313, 2019-01-14"><sodipodi:namedview
   pagecolor="#ffffff"
   bordercolor="#666666"
   borderopacity="1"
   objecttolerance="10"
   gridtolerance="10"
   guidetolerance="10"
   inkscape:pageopacity="0"
   inkscape:pageshadow="2"
   inkscape:window-width="1920"
   inkscape:window-height="1006"
   id="namedview24"
   showgrid="false"
   inkscape:zoom="0.66464121"
   inkscape:cx="173.59398"
   inkscape:cy="177.5394"
   inkscape:window-x="0"
   inkscape:window-y="0"
   inkscape:window-maximized="1"
   inkscape:current-layer="Capa_1" /><metadata
   id="metadata941"><rdf:RDF><cc:Work
       rdf:about=""><dc:format>image/svg+xml</dc:format><dc:type
         rdf:resource="http://purl.org/dc/dcmitype/StillImage" /><dc:title></dc:title></cc:Work></rdf:RDF></metadata><defs
   id="defs939" />
<g
   transform="matrix(0.407604,-0.28238445,0.28238445,0.407604,-20.846118,119.00766)"
   id="g904">
	<g
   id="g902">
		<path
   id="path898"
   d="M 103.007,148.388 31.011,126.002 c -12.603,-3.93 -26,3.107 -29.931,15.73 -3.911,12.604 3.127,26.01 15.74,29.921 l 81.31,25.283 c 2.314,0.727 4.705,1.081 7.096,1.081 3.758,0 7.497,-0.89 10.901,-2.63 l 45.221,-23.17 22.51,77.771 c -2.438,0.832 -4.781,1.951 -6.942,3.414 l -45.125,30.801 c -12.766,8.712 -16.333,25.972 -8.071,39.034 l 45.776,72.312 -50.873,7.774 c -37.131,5.671 -62.596,23.495 -56.83,39.79 5.738,16.294 40.517,25.044 77.667,19.507 l 262.701,-39.015 c 37.149,-5.527 69.165,-24.595 71.508,-42.601 2.343,-17.997 -25.856,-27.99 -62.998,-22.319 l -49.342,7.545 -51.848,-102.128 c -0.316,-0.611 -0.708,-1.186 -1.062,-1.778 l -27.923,-110.438 64.106,-7.038 c 5.432,-0.593 10.51,-3.041 14.354,-6.933 l 63.237,-63.744 c 9.304,-9.371 9.247,-24.508 -0.134,-33.803 -9.362,-9.304 -24.499,-9.247 -33.804,0.134 l -57.289,57.738 -64.681,7.105 c -1.683,0.182 -3.299,0.555 -4.839,1.052 l -107.989,18.58 c -3.318,0.153 -6.636,0.947 -9.772,2.563 z m 98.925,157.408 h 64.346 l 35.324,69.567 -70.208,10.729 -44.389,-70.122 z"
   inkscape:connector-curvature="0" />
		<circle
   id="circle900"
   r="47.821999"
   cy="57.344002"
   cx="194.72099" />
	</g>
</g>
<g
   transform="translate(-52.982039,-108.81688)"
   id="g906">
</g>
<g
   transform="translate(-52.982039,-108.81688)"
   id="g908">
</g>
<g
   transform="translate(-52.982039,-108.81688)"
   id="g910">
</g>
<g
   transform="translate(-52.982039,-108.81688)"
   id="g912">
</g>
<g
   transform="translate(-52.982039,-108.81688)"
   id="g914">
</g>
<g
   transform="translate(-52.982039,-108.81688)"
   id="g916">
</g>
<g
   transform="translate(-52.982039,-108.81688)"
   id="g918">
</g>
<g
   transform="translate(-52.982039,-108.81688)"
   id="g920">
</g>
<g
   transform="translate(-52.982039,-108.81688)"
   id="g922">
</g>
<g
   transform="translate(-52.982039,-108.81688)"
   id="g924">
</g>
<g
   transform="translate(-52.982039,-108.81688)"
   id="g926">
</g>
<g
   transform="translate(-52.982039,-108.81688)"
   id="g928">
</g>
<g
   transform="translate(-52.982039,-108.81688)"
   id="g930">
</g>
<g
   transform="translate(-52.982039,-108.81688)"
   id="g932">
</g>
<g
   transform="translate(-52.982039,-108.81688)"
   id="g934">
</g>
</svg>