<?xml version="1.0" encoding="UTF-8" standalone="no"?>
<svg
   xmlns:dc="http://purl.org/dc/elements/1.1/"
   xmlns:cc="http://creativecommons.org/ns#"
   xmlns:rdf="http://www.w3.org/1999/02/22-rdf-syntax-ns#"
   xmlns:svg="http://www.w3.org/2000/svg"
   xmlns="http://www.w3.org/2000/svg"
   xmlns:sodipodi="http://sodipodi.sourceforge.net/DTD/sodipodi-0.dtd"
   xmlns:inkscape="http://www.inkscape.org/namespaces/inkscape"
   aria-hidden="true"
   data-prefix="far"
   data-icon="snowflake"
   class="svg-inline--fa fa-snowflake fa-w-14"
   role="img"
   viewBox="0 0 300 300"
   version="1.1"
   id="svg4"
   sodipodi:docname="snowflake.svg"
   width="300"
   height="300"
   inkscape:version="0.92.4 5da689c313, 2019-01-14">
  <metadata
     id="metadata10">
    <rdf:RDF>
      <cc:Work
         rdf:about="">
        <dc:format>image/svg+xml</dc:format>
        <dc:type
           rdf:resource="http://purl.org/dc/dcmitype/StillImage" />
        <dc:title></dc:title>
      </cc:Work>
    </rdf:RDF>
  </metadata>
  <defs
     id="defs8" />
  <sodipodi:namedview
     pagecolor="#ffffff"
     bordercolor="#666666"
     borderopacity="1"
     objecttolerance="10"
     gridtolerance="10"
     guidetolerance="10"
     inkscape:pageopacity="0"
     inkscape:pageshadow="2"
     inkscape:window-width="1920"
     inkscape:window-height="1006"
     id="namedview6"
     showgrid="false"
     inkscape:zoom="0.4609375"
     inkscape:cx="142.91674"
     inkscape:cy="216.52347"
     inkscape:window-x="0"
     inkscape:window-y="0"
     inkscape:window-maximized="1"
     inkscape:current-layer="svg4" />
  <path
     d="m 258.03043,199.6 -19.6,-11.5 17.05,-4.65 c 4.20001,-1.15 6.7,-5.55 5.55,-9.8 l -2.04999,-7.75 c -1.1,-4.25 -5.45001,-6.8 -9.65,-5.65 l -39.85001,10.85 -35.9,-21.1 35.95001,-21.1 39.85,10.85 c 4.19999,1.15 8.5,-1.4 9.65,-5.65 l 2.04999,-7.75 c 1.1,-4.25 -1.34999,-8.65 -5.55,-9.8 l -17.05,-4.65 19.6,-11.5 c 3.75,-2.199999 5.05,-7.099999 2.9,-10.950003 L 257.03043,82.5 c -2.14999,-3.85 -7,-5.15 -10.75,-2.95 l -19.6,11.5 4.55,-17.350001 c 1.1,-4.249999 -1.34999,-8.65 -5.55,-9.8 l -7.59999,-2.05 c -4.20001,-1.15 -8.5,1.4 -9.65,5.65 L 197.78044,108 161.83043,129.1 V 86.849995 l 29.15,-29.649996 c 3.05001,-3.1 3.05001,-8.2 0,-11.3 l -5.55,-5.65 c -3.05,-3.1 -8.05,-3.1 -11.1,0 l -12.45,12.7 v -22.95 c 0,-4.4 -3.5,-8 -7.85,-8 h -7.84999 c -4.35001,0 -7.85001,3.6 -7.85001,8 v 23.05 l -12.44999,-12.7 c -3.05001,-3.1 -8.05001,-3.1 -11.1,0 l -5.75001,5.65 c -3.04999,3.1 -3.04999,8.2 0,11.3 l 29.15,29.649999 V 129.2 L 102.23044,108.1 91.580436,67.599999 c -1.1,-4.25 -5.45,-6.8 -9.65,-5.65 l -7.6,2.05 c -4.2,1.15 -6.7,5.55 -5.55,9.8 l 4.55,17.350003 -19.599999,-11.500003 c -3.750001,-2.2 -8.550001,-0.9 -10.750001,2.95 l -3.95,6.95 c -2.15,3.850004 -0.9,8.699992 2.9,10.949991 l 19.6,11.50001 -17.05,4.55 c -4.2,1.15 -6.7,5.55 -5.55,9.8 l 2.05,7.75 c 1.1,4.25 5.45,6.8 9.65,5.65 l 39.85,-10.85 35.949994,21.1 -35.949994,21.1 -39.85,-10.85 c -4.2,-1.15 -8.5,1.4 -9.65,5.65 l -2.05,7.75 c -1.1,4.25 1.35,8.65 5.55,9.8 l 17.05,4.65 -19.6,11.5 c -3.75,2.2 -5.05,7.1 -2.9,10.95 l 3.95,6.95 c 2.15,3.85 7,5.15 10.750001,2.95 l 19.599999,-11.5 -4.55,17.35 c -1.1,4.25 1.35,8.65 5.55,9.8 l 7.6,2.05 c 4.2,1.15 8.5,-1.4 9.65,-5.65 L 102.23044,192 138.18043,170.9 v 42.25 l -29.15,29.65 c -3.04999,3.1 -3.04999,8.2 0,11.3 l 5.55,5.65 c 3.05,3.1 8.05,3.1 11.1,0 l 12.45,-12.7 V 270 c 0,4.4 3.5,8 7.85,8 h 7.85001 c 4.34999,0 7.85,-3.6 7.85,-8 v -23.05 l 12.45,12.7 c 3.04999,3.1 8.04999,3.1 11.1,0 l 5.55,-5.65 c 3.04999,-3.1 3.04999,-8.2 0,-11.3 l -29.15,-29.65 V 170.8 l 35.94999,21.1 10.65,40.5 c 1.1,4.25 5.45,6.8 9.65,5.65 l 7.6,-2.05 c 4.2,-1.15 6.7,-5.55 5.55,-9.8 l -4.54999,-17.35 19.6,11.5 c 3.74999,2.2 8.54999,0.9 10.74999,-2.95 l 3.95001,-6.95 c 2.3,-3.75 1.04999,-8.65 -2.75001,-10.85 z"
     id="path2"
     inkscape:connector-curvature="0"
     style="fill:currentColor;stroke-width:0.49999997" />
</svg>
