<?xml version="1.0" encoding="UTF-8" standalone="no"?>
<svg
   xmlns:dc="http://purl.org/dc/elements/1.1/"
   xmlns:cc="http://creativecommons.org/ns#"
   xmlns:rdf="http://www.w3.org/1999/02/22-rdf-syntax-ns#"
   xmlns:svg="http://www.w3.org/2000/svg"
   xmlns="http://www.w3.org/2000/svg"
   xmlns:sodipodi="http://sodipodi.sourceforge.net/DTD/sodipodi-0.dtd"
   xmlns:inkscape="http://www.inkscape.org/namespaces/inkscape"
   aria-hidden="true"
   data-prefix="far"
   data-icon="snowflake"
   class="svg-inline--fa fa-snowflake fa-w-14"
   role="img"
   viewBox="0 0 300 300"
   version="1.1"
   id="svg4"
   sodipodi:docname="snowmaking.svg"
   width="300"
   height="300"
   inkscape:version="0.92.4 5da689c313, 2019-01-14">
  <metadata
     id="metadata10">
    <rdf:RDF>
      <cc:Work
         rdf:about="">
        <dc:format>image/svg+xml</dc:format>
        <dc:type
           rdf:resource="http://purl.org/dc/dcmitype/StillImage" />
        <dc:title></dc:title>
      </cc:Work>
    </rdf:RDF>
  </metadata>
  <defs
     id="defs8" />
  <sodipodi:namedview
     pagecolor="#ffffff"
     bordercolor="#666666"
     borderopacity="1"
     objecttolerance="10"
     gridtolerance="10"
     guidetolerance="10"
     inkscape:pageopacity="0"
     inkscape:pageshadow="2"
     inkscape:window-width="1920"
     inkscape:window-height="1006"
     id="namedview6"
     showgrid="false"
     inkscape:zoom="1.3037281"
     inkscape:cx="-1.8371211"
     inkscape:cy="183.2833"
     inkscape:window-x="0"
     inkscape:window-y="0"
     inkscape:window-maximized="1"
     inkscape:current-layer="svg4" />
  <path
     d="m 187.93776,184.04959 -7.38728,-4.33436 6.42618,-1.75259 c 1.58299,-0.43344 2.52524,-2.09181 2.0918,-3.69364 l -0.77264,-2.92099 c -0.41459,-1.60183 -2.05412,-2.56293 -3.6371,-2.12949 l -15.01954,4.08938 -13.53077,-7.95263 13.54962,-7.95262 15.01953,4.08938 c 1.58299,0.43344 3.20367,-0.52766 3.63711,-2.12949 l 0.77264,-2.92099 c 0.41459,-1.60184 -0.50882,-3.2602 -2.09181,-3.69364 l -6.42617,-1.75259 7.38727,-4.33437 c 1.41339,-0.82918 1.90336,-2.676 1.09302,-4.12708 l -1.48877,-2.61946 c -0.81033,-1.45107 -2.63831,-1.94105 -4.05169,-1.11186 l -7.38728,4.33437 1.71492,-6.53925 c 0.41458,-1.60183 -0.50882,-3.2602 -2.09182,-3.69364 l -2.86445,-0.77264 c -1.58298,-0.43344 -3.20366,0.52766 -3.63709,2.12949 l -4.014,15.26452 -13.54962,7.95263 v -15.9241 l 10.98668,-11.17514 c 1.14956,-1.16839 1.14956,-3.09059 0,-4.25899 l -2.0918,-2.12949 c -1.14955,-1.1684 -3.03406,-1.1684 -4.18361,0 l -4.69243,4.78665 v -8.64989 c 0,-1.65837 -1.31915,-3.01522 -2.95868,-3.01522 h -2.95867 c -1.63953,0 -2.95868,1.35685 -2.95868,3.01522 v 8.68758 l -4.69242,-4.78665 c -1.14956,-1.1684 -3.03407,-1.1684 -4.18361,0 l -2.16718,2.1295 c -1.14955,1.16839 -1.14955,3.09059 0,4.25898 l 10.98667,11.17514 v 15.9241 l -13.54961,-7.95263 -4.014,-15.26452 c -0.4146,-1.60183 -2.05412,-2.56293 -3.63711,-2.12949 l -2.86444,0.77265 c -1.583,0.43343 -2.52525,2.0918 -2.09181,3.69363 l 1.7149,6.53925 -7.38727,-4.33437 c -1.41339,-0.82919 -3.22252,-0.33921 -4.0517,1.11186 l -1.48876,2.61946 c -0.81034,1.45108 -0.33921,3.27905 1.09301,4.12707 l 7.38728,4.33438 -6.42618,1.7149 c -1.58299,0.43344 -2.52524,2.0918 -2.0918,3.69364 l 0.77265,2.92099 c 0.41459,1.60183 2.05411,2.56293 3.6371,2.12949 l 15.01953,-4.08938 13.54962,7.95262 -13.54962,7.95263 -15.01953,-4.08938 c -1.58299,-0.43344 -3.20367,0.52766 -3.6371,2.12949 l -0.77265,2.92099 c -0.41459,1.60183 0.50881,3.2602 2.0918,3.69364 l 6.42618,1.75259 -7.38728,4.33436 c -1.41338,0.82919 -1.90335,2.67601 -1.09301,4.12708 l 1.48876,2.61947 c 0.81033,1.45108 2.63831,1.94105 4.0517,1.11187 l 7.38727,-4.33439 -1.7149,6.53925 c -0.4146,1.60183 0.50881,3.2602 2.09181,3.69364 l 2.86444,0.77264 c 1.58299,0.43345 3.20368,-0.52765 3.63711,-2.12949 l 4.014,-15.26452 13.54961,-7.95262 v 15.9241 l -10.98667,11.17513 c -1.14955,1.16839 -1.14955,3.09059 0,4.25898 l 2.09179,2.1295 c 1.14956,1.1684 3.03405,1.1684 4.18361,0 l 4.69243,-4.78666 v 8.64991 c 0,1.65837 1.31915,3.0152 2.95867,3.0152 h 2.95869 c 1.63951,0 2.95867,-1.35683 2.95867,-3.0152 v -8.6876 l 4.69243,4.78667 c 1.14955,1.16839 3.03406,1.16839 4.18362,0 l 2.09179,-2.12951 c 1.14955,-1.16839 1.14955,-3.09059 0,-4.25898 l -10.98668,-11.17513 v -15.9241 l 13.54962,7.95262 4.014,15.26452 c 0.41458,1.60184 2.0541,2.56294 3.63709,2.12949 l 2.86446,-0.77265 c 1.58298,-0.43344 2.52524,-2.0918 2.09181,-3.69363 l -1.71491,-6.53925 7.38728,4.33439 c 1.41338,0.82919 3.22249,0.33921 4.05168,-1.11187 l 1.48878,-2.61947 c 0.86686,-1.41338 0.39574,-3.2602 -1.03649,-4.08939 z"
     id="path2"
     inkscape:connector-curvature="0"
     style="fill:currentColor;stroke-width:0.18845086" />
  <path
     style="fill:currentColor;stroke-width:0.14051141"
     inkscape:connector-curvature="0"
     id="path861"
     d="m 223.36993,80.210751 -5.50805,-3.231761 4.79145,-1.306745 c 1.18029,-0.323183 1.88285,-1.559679 1.55968,-2.754033 l -0.5761,-2.177928 c -0.30912,-1.194354 -1.53158,-1.910957 -2.71188,-1.587774 l -11.19875,3.049098 -10.08872,-5.929581 10.10277,-5.929593 11.19876,3.049109 c 1.1803,0.323172 2.3887,-0.393431 2.71187,-1.587774 l 0.5761,-2.177939 c 0.30912,-1.194353 -0.37939,-2.43085 -1.55967,-2.754033 l -4.79145,-1.306745 5.50804,-3.23175 c 1.05383,-0.618259 1.41917,-1.995264 0.81497,-3.077212 l -1.11005,-1.953103 c -0.60418,-1.081935 -1.96716,-1.447274 -3.02098,-0.829025 l -5.50805,3.231769 1.27865,-4.87575 c 0.30912,-1.194351 -0.37938,-2.430846 -1.55968,-2.754028 l -2.13576,-0.576104 c -1.1803,-0.32318 -2.38869,0.393441 -2.71187,1.587779 l -2.9929,11.381437 -10.10275,5.92957 v -11.87321 l 8.1918,-8.332326 c 0.85712,-0.87117 0.85712,-2.304386 0,-3.175556 l -1.55967,-1.587778 c -0.85713,-0.87117 -2.26224,-0.87117 -3.11935,0 l -3.49874,3.568996 v -6.449472 c 0,-1.236496 -0.98358,-2.248184 -2.20604,-2.248184 h -2.20601 c -1.22247,0 -2.20604,1.011688 -2.20604,2.248184 v 6.477573 l -3.49872,-3.568996 c -0.85713,-0.87117 -2.26225,-0.87117 -3.11936,0 l -1.61588,1.587778 c -0.85713,0.87117 -0.85713,2.304385 0,3.175569 l 8.1918,8.332327 v 11.873201 l -10.10277,-5.92957 -2.99288,-11.381429 c -0.30914,-1.194351 -1.53158,-1.910959 -2.71189,-1.587778 l -2.13576,0.576089 c -1.18029,0.323182 -1.88285,1.559677 -1.55968,2.754029 l 1.27865,4.875755 -5.50804,-3.231775 c -1.05385,-0.618248 -2.40275,-0.252921 -3.02101,0.829025 l -1.11003,1.953104 c -0.6042,1.081942 -0.25292,2.444888 0.81497,3.077195 l 5.50804,3.231772 -4.79144,1.278639 c -1.18029,0.323183 -1.88285,1.55968 -1.55967,2.754033 l 0.57609,2.177939 c 0.30913,1.194343 1.53157,1.910946 2.71188,1.587774 l 11.19875,-3.049109 10.10277,5.929593 -10.10277,5.929581 -11.19875,-3.049098 c -1.18031,-0.323183 -2.3887,0.39342 -2.71188,1.587774 l -0.57609,2.177928 c -0.30912,1.194354 0.37938,2.43085 1.55967,2.754033 l 4.79144,1.306745 -5.50804,3.231761 c -1.05383,0.618248 -1.41917,1.995265 -0.81497,3.077193 l 1.11003,1.953123 c 0.6042,1.081928 1.96716,1.447254 3.02101,0.829006 l 5.50804,-3.23175 -1.27865,4.875736 c -0.30912,1.194354 0.37939,2.430862 1.55968,2.754022 l 2.13576,0.576095 c 1.18031,0.323183 2.38871,-0.393432 2.71189,-1.587775 l 2.99288,-11.381424 10.10277,-5.929581 v 11.873222 l -8.1918,8.332314 c -0.85713,0.871171 -0.85713,2.3044 0,3.175571 l 1.55966,1.587763 c 0.85713,0.871183 2.26224,0.871183 3.11936,0 l 3.49873,-3.56898 v 6.449463 c 0,1.236511 0.98358,2.248191 2.20603,2.248191 h 2.20604 c 1.22244,0 2.20602,-1.01168 2.20602,-2.248191 V 93.51718 l 3.49875,3.568991 c 0.85711,0.871171 2.26222,0.871171 3.11934,0 l 1.55968,-1.587785 c 0.85712,-0.871171 0.85712,-2.304389 0,-3.17556 l -8.19182,-8.332314 V 72.117301 l 10.10277,5.92957 2.9929,11.381424 c 0.30912,1.194354 1.53156,1.910957 2.71186,1.587797 l 2.13577,-0.576106 c 1.18029,-0.323183 1.88286,-1.559679 1.55968,-2.754033 l -1.27865,-4.875737 5.50805,3.231762 c 1.05383,0.618248 2.40273,0.252922 3.02098,-0.829018 l 1.11006,-1.953111 c 0.64633,-1.053833 0.29505,-2.43085 -0.77283,-3.049098 z" />
  <path
     d="m 264.70324,150.62899 -5.44933,-3.1973 4.74037,-1.29282 c 1.16771,-0.31974 1.86277,-1.54305 1.54304,-2.72467 l -0.56994,-2.1547 c -0.30583,-1.18162 -1.51526,-1.89059 -2.68297,-1.57085 l -11.07935,3.01659 -9.98116,-5.86635 9.99505,-5.86638 11.07936,3.0166 c 1.16771,0.31972 2.36324,-0.38924 2.68296,-1.57085 l 0.56995,-2.15472 c 0.30583,-1.18162 -0.37534,-2.40493 -1.54304,-2.72466 l -4.74036,-1.29281 5.44932,-3.19731 c 1.0426,-0.61166 1.40404,-1.97398 0.80628,-3.0444 l -1.09822,-1.93228 c -0.59773,-1.07039 -1.94618,-1.43184 -2.98877,-0.82018 l -5.44933,3.19731 1.26502,-4.82376 c 0.30583,-1.18162 -0.37532,-2.40493 -1.54304,-2.72467 l -2.113,-0.56996 c -1.16771,-0.31974 -2.36322,0.38924 -2.68296,1.57085 l -2.96098,11.26009 -9.99504,5.86635 v -11.74662 l 8.10447,-8.24349 c 0.84797,-0.86188 0.84797,-2.27982 0,-3.1417 l -1.54305,-1.57085 c -0.84799,-0.86188 -2.23812,-0.86188 -3.08609,0 l -3.46144,3.53094 v -6.38071 c 0,-1.22331 -0.97309,-2.22421 -2.18252,-2.22421 h -2.18249 c -1.20943,0 -2.18252,1.0009 -2.18252,2.22421 v 6.40851 l -3.46142,-3.53094 c -0.84799,-0.86188 -2.23812,-0.86188 -3.0861,0 l -1.59865,1.57085 c -0.84798,0.86188 -0.84798,2.27982 0,3.14171 l 8.10446,8.24349 v 11.74661 l -9.99505,-5.86635 -2.96097,-11.26008 c -0.30585,-1.18161 -1.51525,-1.89058 -2.68297,-1.57085 l -2.113,0.56995 c -1.16771,0.31974 -1.86277,1.54305 -1.54305,2.72467 l 1.26502,4.82376 -5.44931,-3.19731 c -1.04261,-0.61166 -2.37713,-0.25023 -2.9888,0.82019 l -1.0982,1.93228 c -0.59776,1.07041 -0.25023,2.41882 0.80628,3.04438 l 5.44931,3.19732 -4.74034,1.26501 c -1.16771,0.31973 -1.86279,1.54304 -1.54305,2.72466 l 0.56994,2.15472 c 0.30585,1.18161 1.51525,1.89057 2.68297,1.57085 l 11.07935,-3.0166 9.99506,5.86638 -9.99506,5.86635 -11.07935,-3.01659 c -1.16772,-0.31974 -2.36323,0.38923 -2.68297,1.57085 l -0.56994,2.1547 c -0.30583,1.18162 0.37534,2.40493 1.54305,2.72467 l 4.74034,1.29282 -5.44931,3.1973 c -1.0426,0.61166 -1.40404,1.97399 -0.80628,3.04439 l 1.0982,1.93229 c 0.59776,1.0704 1.94619,1.43183 2.9888,0.82018 l 5.44931,-3.19731 -1.26502,4.82376 c -0.30583,1.18162 0.37534,2.40494 1.54305,2.72466 l 2.113,0.56995 c 1.16772,0.31974 2.36323,-0.38923 2.68297,-1.57085 l 2.96097,-11.26008 9.99505,-5.86635 v 11.74662 l -8.10446,8.24348 c -0.84798,0.86189 -0.84798,2.27983 0,3.14172 l 1.54304,1.57083 c 0.84799,0.8619 2.23812,0.8619 3.08609,0 l 3.46144,-3.53093 v 6.38071 c 0,1.22333 0.97309,2.22421 2.1825,2.22421 h 2.18252 c 1.20941,0 2.18251,-1.00088 2.18251,-2.22421 v -6.40851 l 3.46143,3.53094 c 0.84798,0.86189 2.23811,0.86189 3.0861,0 l 1.54305,-1.57086 c 0.84797,-0.86188 0.84797,-2.27982 0,-3.1417 l -8.10449,-8.24348 v -11.74662 l 9.99506,5.86635 2.96098,11.26008 c 0.30583,1.18162 1.51523,1.89059 2.68296,1.57086 l 2.11299,-0.56996 c 1.16771,-0.31973 1.86279,-1.54305 1.54305,-2.72466 l -1.26502,-4.82376 5.44933,3.1973 c 1.0426,0.61166 2.37712,0.25023 2.98877,-0.82017 l 1.09823,-1.93229 c 0.63944,-1.0426 0.29191,-2.40493 -0.76459,-3.01659 z"
     id="path872"
     inkscape:connector-curvature="0"
     style="fill:currentColor;stroke-width:0.13901331" />
  <path
     style="fill:currentColor;stroke-width:0.13302088"
     inkscape:connector-curvature="0"
     id="path874"
     d="m 254.20627,244.76289 -5.21443,-3.05947 4.53602,-1.2371 c 1.11737,-0.30595 1.78247,-1.47653 1.47653,-2.60721 l -0.54538,-2.06182 c -0.29264,-1.13068 -1.44994,-1.80909 -2.56731,-1.50314 l -10.60175,2.88655 -9.55091,-5.61347 9.5642,-5.61349 10.60177,2.88656 c 1.11737,0.30594 2.26136,-0.37245 2.5673,-1.50313 l 0.54538,-2.06184 c 0.29264,-1.13068 -0.35916,-2.30126 -1.47652,-2.60721 l -4.53602,-1.23708 5.21441,-3.05948 c 0.99766,-0.5853 1.34352,-1.88889 0.77152,-2.91316 l -1.05087,-1.84899 c -0.57197,-1.02426 -1.86229,-1.37012 -2.85993,-0.78483 l -5.21443,3.05949 1.21049,-4.61583 c 0.29265,-1.13068 -0.35914,-2.30126 -1.47653,-2.60721 l -2.02191,-0.5454 c -1.11738,-0.30595 -2.26135,0.37247 -2.5673,1.50314 l -2.83335,10.7747 -9.56419,5.61347 v -11.24026 l 7.75512,-7.88814 c 0.81142,-0.82473 0.81142,-2.18154 0,-3.00627 l -1.47654,-1.50313 c -0.81143,-0.82473 -2.14164,-0.82473 -2.95306,0 l -3.31222,3.37873 v -6.10565 c 0,-1.17058 -0.93114,-2.12834 -2.08844,-2.12834 h -2.08841 c -1.1573,0 -2.08844,0.95776 -2.08844,2.12834 v 6.13225 l -3.31221,-3.37873 c -0.81143,-0.82473 -2.14164,-0.82473 -2.95306,0 l -1.52974,1.50313 c -0.81143,0.82473 -0.81143,2.18155 0,3.00629 l 7.7551,7.88814 v 11.24025 l -9.5642,-5.61347 -2.83333,-10.7747 c -0.29266,-1.13068 -1.44993,-1.80908 -2.56732,-1.50313 l -2.02191,0.54538 c -1.11737,0.30595 -1.78247,1.47653 -1.47653,2.60721 l 1.21049,4.61583 -5.21441,-3.05949 c -0.99767,-0.58529 -2.27466,-0.23944 -2.85996,0.78483 l -1.05086,1.84899 c -0.572,1.02427 -0.23944,2.31455 0.77152,2.91315 l 5.21441,3.05949 -4.53601,1.21048 c -1.11737,0.30595 -1.78248,1.47653 -1.47653,2.60721 l 0.54538,2.06184 c 0.29266,1.13068 1.44993,1.80907 2.56732,1.50313 l 10.60175,-2.88656 9.5642,5.61349 -9.5642,5.61347 -10.60175,-2.88655 c -1.11739,-0.30595 -2.26137,0.37246 -2.56732,1.50314 l -0.54538,2.06182 c -0.29264,1.13068 0.35916,2.30126 1.47653,2.60721 l 4.53601,1.2371 -5.21441,3.05947 c -0.99766,0.58529 -1.34352,1.8889 -0.77152,2.91315 l 1.05086,1.849 c 0.57199,1.02426 1.86229,1.37011 2.85996,0.78482 l 5.21441,-3.05947 -1.21049,4.61581 c -0.29265,1.13068 0.35916,2.30128 1.47653,2.60722 l 2.02191,0.54537 c 1.11739,0.30596 2.26136,-0.37245 2.56732,-1.50313 l 2.83333,-10.77469 9.5642,-5.61347 v 11.24026 l -7.7551,7.88813 c -0.81143,0.82473 -0.81143,2.18155 0,3.00628 l 1.47652,1.50312 c 0.81143,0.82474 2.14164,0.82474 2.95306,0 l 3.31223,-3.37872 v 6.10565 c 0,1.1706 0.93114,2.12834 2.08842,2.12834 h 2.08844 c 1.15727,0 2.08842,-0.95774 2.08842,-2.12834 v -6.13225 l 3.31222,3.37873 c 0.81143,0.82473 2.14163,0.82473 2.95307,0 l 1.47653,-1.50315 c 0.81142,-0.82472 0.81142,-2.18154 0,-3.00627 l -7.75513,-7.88812 v -11.24027 l 9.56421,5.61348 2.83334,10.77469 c 0.29264,1.13068 1.44992,1.80908 2.5673,1.50314 l 2.02191,-0.54539 c 1.11738,-0.30595 1.78249,-1.47653 1.47654,-2.60721 l -1.21049,-4.61582 5.21442,3.05948 c 0.99766,0.58529 2.27465,0.23944 2.85994,-0.78482 l 1.05088,-1.849 c 0.61188,-0.99765 0.27933,-2.30126 -0.73162,-2.88655 z" />
  <path
     style="fill:#000000;fill-opacity:1;stroke:#000000;stroke-width:1px;stroke-linecap:butt;stroke-linejoin:miter;stroke-opacity:1"
     d="m 32.84509,284.92258 c 0,0 -2.540517,-160.22619 7.324373,-176.14459 C 50.034353,92.859589 162.37718,9.3533839 167.6508,9.9419379 c 5.27362,0.5885541 6.69767,5.3361041 4.73379,9.6922351 -1.96389,4.356132 -103.12726,83.742227 -112.477706,94.187337 -8.774296,39.01239 -7.14775,81.63407 -5.412439,113.57043 l 2.579862,56.84305 z"
     id="path935"
     inkscape:connector-curvature="0"
     sodipodi:nodetypes="czzzcccc" />
</svg>
