<?xml version="1.0" encoding="UTF-8" standalone="no"?>
<svg
   xmlns:dc="http://purl.org/dc/elements/1.1/"
   xmlns:cc="http://creativecommons.org/ns#"
   xmlns:rdf="http://www.w3.org/1999/02/22-rdf-syntax-ns#"
   xmlns:svg="http://www.w3.org/2000/svg"
   xmlns="http://www.w3.org/2000/svg"
   xmlns:sodipodi="http://sodipodi.sourceforge.net/DTD/sodipodi-0.dtd"
   xmlns:inkscape="http://www.inkscape.org/namespaces/inkscape"
   aria-hidden="true"
   data-prefix="fas"
   data-icon="thermometer-half"
   class="svg-inline--fa fa-thermometer-half fa-w-8"
   role="img"
   viewBox="0 0 300 300"
   version="1.1"
   id="svg4"
   sodipodi:docname="thermometer.svg"
   width="300"
   height="300"
   inkscape:version="0.92.4 5da689c313, 2019-01-14">
  <metadata
     id="metadata10">
    <rdf:RDF>
      <cc:Work
         rdf:about="">
        <dc:format>image/svg+xml</dc:format>
        <dc:type
           rdf:resource="http://purl.org/dc/dcmitype/StillImage" />
        <dc:title></dc:title>
      </cc:Work>
    </rdf:RDF>
  </metadata>
  <defs
     id="defs8" />
  <sodipodi:namedview
     pagecolor="#ffffff"
     bordercolor="#666666"
     borderopacity="1"
     objecttolerance="10"
     gridtolerance="10"
     guidetolerance="10"
     inkscape:pageopacity="0"
     inkscape:pageshadow="2"
     inkscape:window-width="1920"
     inkscape:window-height="1006"
     id="namedview6"
     showgrid="false"
     inkscape:zoom="0.4609375"
     inkscape:cx="159.82648"
     inkscape:cy="176.35196"
     inkscape:window-x="0"
     inkscape:window-y="0"
     inkscape:window-maximized="1"
     inkscape:current-layer="svg4" />
  <path
     d="m 184.44059,218.88135 c 0,19.02093 -15.41974,34.44067 -34.44068,34.44067 -19.02094,0 -34.44067,-15.41974 -34.44067,-34.44067 0,-12.74575 6.92903,-23.86578 17.22033,-29.82186 v -56.27983 c 0,-9.51047 7.70987,-17.22034 17.22034,-17.22034 9.51047,0 17.22034,7.70987 17.22034,17.22034 v 56.27983 c 10.2913,5.95608 17.22034,17.07611 17.22034,29.82186 z m 17.22034,-45.55479 c 10.71535,12.14195 17.22034,28.08744 17.22034,45.55479 0,38.04403 -30.83679,68.88135 -68.88136,68.88135 -0.1609,0 -0.32773,-5.3e-4 -0.48916,-0.002 -37.83201,-0.26232 -68.584307,-31.40584 -68.391116,-69.23838 0.08825,-17.32689 6.577631,-33.13731 17.219257,-45.19585 V 63.898312 c 0,-28.53141 23.129609,-51.661014 51.661019,-51.661014 28.5314,0 51.66102,23.129604 51.66102,51.661014 z m -8.61017,45.55479 c 0,-18.47904 -10.4237,-28.08529 -17.22034,-35.7871 V 63.898312 c 0,-14.242834 -11.58767,-25.830507 -25.83051,-25.830507 -14.24283,0 -25.83051,11.587673 -25.83051,25.830507 V 183.09425 c -6.85154,7.76423 -17.12616,17.27416 -17.2198,35.56 -0.12054,23.61124 19.13772,43.11327 42.74034,43.27687 l 0.30997,9.6e-4 c 23.73823,0 43.05085,-19.31261 43.05085,-43.05084 z"
     id="path2"
     inkscape:connector-curvature="0"
     style="fill:currentColor;stroke-width:0.53813553" />
</svg>
