<?xml version="1.0" encoding="UTF-8" standalone="no"?>
<svg
   xmlns:dc="http://purl.org/dc/elements/1.1/"
   xmlns:cc="http://creativecommons.org/ns#"
   xmlns:rdf="http://www.w3.org/1999/02/22-rdf-syntax-ns#"
   xmlns:svg="http://www.w3.org/2000/svg"
   xmlns="http://www.w3.org/2000/svg"
   id="svg4940"
   version="1.1"
   viewBox="0 0 100 100"
   height="100mm"
   width="100mm">
  <defs
     id="defs4934" />
  <metadata
     id="metadata4937">
    <rdf:RDF>
      <cc:Work
         rdf:about="">
        <dc:format>image/svg+xml</dc:format>
        <dc:type
           rdf:resource="http://purl.org/dc/dcmitype/StillImage" />
        <dc:title></dc:title>
      </cc:Work>
    </rdf:RDF>
  </metadata>
  <g
     transform="translate(0,-197)"
     id="layer1">
    <g
       transform="matrix(2.5581489,0,0,2.5581489,125.39031,565.91655)"
       id="g272">
      <path
         style="fill:#414141"
         d="m -29.489672,-125.97327 c 0,0 15.54,0 17.34,1.4 1.8,1.4 1.96,8.5 1.96,8.6 0,0.1 0,7.1 -1.93,8.6 -1.93,1.5 -17.37,1.4 -17.37,1.4 0,0 -15.5,0 -17.3,-1.5 -1.8,-1.5 -1.8,-8.5 -1.8,-8.5 0,0 0,-7.1 1.8,-8.6 1.8,-1.5 17.3,-1.4 17.3,-1.4 z"
         id="path234" />
      <g
         transform="translate(-59.489672,-153.97327)"
         style="isolation:isolate"
         id="g244">
        <path
           style="fill:#c0bfbf"
           d="m 22.52,32.63 v 2.53 H 20 v 9.22 h -2.2 v -9.22 h -2.52 v -2.53 z"
           id="path236" />
        <path
           style="fill:#c0bfbf"
           d="m 29.58,35.31 v 9.07 h -2.14 v -1.47 a 2.27,2.27 0 0 1 -2.08,1.61 C 23.95,44.52 23,43.16 23,41 v -5.69 h 2.14 v 4.88 c 0,1 0.41,1.64 1,1.64 0.59,0 1.22,-0.86 1.22,-2 v -4.52 h 2.14 z"
           id="path238" />
        <path
           style="fill:#c0bfbf"
           d="m 38.38,39.89 c 0,2.77 -1.18,4.59 -3,4.59 a 2.21,2.21 0 0 1 -2,-1.27 v 1.17 h -2.1 V 31.94 h 2.14 v 4.54 a 2.17,2.17 0 0 1 1.92,-1.27 c 1.82,0 3.04,1.86 3.04,4.68 z m -2.16,-0.07 c 0,-1.34 -0.57,-2.26 -1.41,-2.26 -0.84,0 -1.38,0.92 -1.38,2.26 0,1.34 0.57,2.25 1.38,2.25 0.81,0 1.41,-0.9 1.41,-2.25 z"
           id="path240" />
        <path
           style="fill:#c0bfbf"
           d="m 45.64,40.65 h -4.53 a 1.64,1.64 0 0 0 1.48,1.59 1.93,1.93 0 0 0 1.53,-0.92 l 1.12,1.56 a 3.26,3.26 0 0 1 -2.84,1.61 c -2.13,0 -3.45,-1.83 -3.45,-4.59 0,-2.76 1.36,-4.68 3.4,-4.68 2.28,-0.01 3.44,2.12 3.29,5.43 z m -2.07,-1.59 c 0,-1 -0.48,-1.74 -1.2,-1.74 -0.72,0 -1.16,0.71 -1.3,1.74 h 2.51 z"
           id="path242" />
      </g>
      <g
         transform="translate(-59.489672,-153.97327)"
         style="isolation:isolate"
         id="g252">
        <path
           style="fill:#414141"
           d="m 23.86,19.9 v 3.76 H 21.49 V 20 l -3.34,-8.1 h 2.37 l 2.15,5 2.1,-5 h 2.37 z"
           id="path246" />
        <path
           style="fill:#414141"
           d="m 33.28,19.11 c 0,2.8 -1.34,4.65 -3.36,4.65 -2.02,0 -3.35,-1.84 -3.35,-4.65 0,-2.81 1.33,-4.63 3.35,-4.63 2.02,0 3.36,1.84 3.36,4.63 z m -4.68,0.05 c 0,1.34 0.53,2.25 1.32,2.25 0.79,0 1.33,-0.91 1.33,-2.25 0,-1.34 -0.53,-2.26 -1.33,-2.26 -0.8,0 -1.31,0.9 -1.31,2.26 z"
           id="path248" />
        <path
           style="fill:#414141"
           d="m 41.26,14.58 v 9.07 h -2.31 v -1.47 a 2.42,2.42 0 0 1 -2.24,1.61 c -1.52,0 -2.5,-1.36 -2.5,-3.47 v -5.74 h 2.31 v 4.88 c 0,1 0.44,1.64 1.13,1.64 0.69,0 1.31,-0.86 1.31,-2 v -4.52 h 2.31 z"
           id="path250" />
      </g>
    </g>
  </g>
</svg>
