<?xml version="1.0" encoding="UTF-8" standalone="no"?>
<svg
   xmlns:osb="http://www.openswatchbook.org/uri/2009/osb"
   xmlns:dc="http://purl.org/dc/elements/1.1/"
   xmlns:cc="http://creativecommons.org/ns#"
   xmlns:rdf="http://www.w3.org/1999/02/22-rdf-syntax-ns#"
   xmlns:svg="http://www.w3.org/2000/svg"
   xmlns="http://www.w3.org/2000/svg"
   width="203.60854"
   height="74.979614"
   viewBox="0 0 447.94081 164.9559"
   version="1.1"
   id="svg8">
  <defs
     id="defs2">
    <linearGradient
       id="linearGradient14295"
       osb:paint="solid">
      <stop
         style="stop-color:#2d7dbc;stop-opacity:1;"
         offset="0"
         id="stop14293" />
    </linearGradient>
    <linearGradient
       id="linearGradient13988"
       osb:paint="solid">
      <stop
         style="stop-color:#a4a4a4;stop-opacity:1;"
         offset="0"
         id="stop13986" />
    </linearGradient>
    <linearGradient
       id="linearGradient13946"
       osb:paint="solid">
      <stop
         style="stop-color:#000000;stop-opacity:1;"
         offset="0"
         id="stop13944" />
    </linearGradient>
    <linearGradient
       id="linearGradient13926"
       osb:paint="solid">
      <stop
         style="stop-color:#484848;stop-opacity:1;"
         offset="0"
         id="stop13924" />
    </linearGradient>
  </defs>
  <metadata
     id="metadata5">
    <rdf:RDF>
      <cc:Work
         rdf:about="">
        <dc:format>image/svg+xml</dc:format>
        <dc:type
           rdf:resource="http://purl.org/dc/dcmitype/StillImage" />
        <dc:title></dc:title>
      </cc:Work>
    </rdf:RDF>
  </metadata>
  <g
     style="fill:#ffffff"
     id="layer1"
     transform="translate(-0.9937376,-138.63445)">
    <path
       id="path4249"
       d="m 137.81102,141.50587 c -11.57925,3.66873 -14.1708,17.4173 -23.37681,24.09352 -7.3913,7.4007 -14.812461,15.85045 -16.710389,26.48453 -4.801734,12.22667 -14.866322,-1.78569 -17.098414,-8.26806 -5.50543,-8.30611 -15.308463,-4.3647 -16.676009,4.46656 -5.648071,8.00637 -16.643094,11.60692 -19.434109,21.72442 -11.159888,22.32083 -22.468599,44.60261 -35.0753882,66.14224 -1.2915307,2.56234 -7.7892136,10.10757 -1.826022,4.77279 15.1264082,-12.86684 21.7172722,-32.27729 32.0250572,-48.66821 1.425675,-3.69167 7.310468,-16.51275 10.269079,-10.4229 -1.107519,10.97345 -9.83818,18.94808 -13.449809,28.88144 1.370967,8.52606 9.011113,-11.79883 13.863684,-8.35743 5.167398,-12.59875 6.85307,-26.80498 14.446964,-38.28337 9.75612,-9.82174 26.885229,3.79648 20.270049,15.84394 -4.15508,10.26758 -9.817493,20.22707 -17.276676,28.47184 -8.526056,8.81658 -19.253229,14.95737 -29.140086,22.06062 -1.640563,4.59846 8.657711,-2.65215 11.166142,-3.3763 22.325335,-10.39838 34.762266,-33.30455 44.704513,-54.6669 5.045677,-10.96383 8.568514,-22.62731 13.660994,-33.52158 6.39758,-6.29773 10.49381,4.18131 5.76847,8.92385 -4.7217,14.60218 -17.324899,26.44334 -17.399926,42.50736 5.879416,-20.28962 24.439706,-34.85254 27.092916,-56.40356 -0.5544,-6.07788 7.27247,-13.11175 8.53939,-3.72941 4.00522,5.05268 10.39801,10.60804 9.97624,16.64502 4.62151,1.36011 20.80277,0.0217 11.42827,-5.75294 -6.32567,-4.48068 -19.20324,-14.42598 -12.44311,-22.17726 6.81869,6.63376 13.88985,13.16315 22.87506,17.0947 13.06863,7.02934 25.88234,14.49031 38.37409,22.50234 10.17765,0.35125 -1.21623,-7.84843 -5.30441,-9.04088 -14.19925,-8.57967 -28.74752,-17.73258 -38.25463,-31.70614 -5.78612,-6.70547 -12.17707,-13.72968 -20.99513,-16.24023 z"
       style="opacity:1;fill:#ffffff;fill-opacity:1;fill-rule:nonzero;stroke:none;stroke-width:1.39999592;stroke-linejoin:round;stroke-miterlimit:4;stroke-dasharray:none;stroke-dashoffset:0;stroke-opacity:1;paint-order:fill markers stroke" />
    <g
       id="text112"
       style="font-style:normal;font-weight:normal;font-size:50.61696625px;line-height:1.25;font-family:sans-serif;letter-spacing:0px;word-spacing:0px;fill:#ffffff;fill-opacity:1;stroke:none;stroke-width:1.26542461"
       transform="scale(0.93043604,1.0747649)"
       aria-label="SKI AREÁL">
      <path
         id="path1084"
         style="font-style:normal;font-variant:normal;font-weight:bold;font-stretch:normal;font-family:sans-serif;-inkscape-font-specification:'sans-serif Bold';fill:#ffffff;stroke-width:1.26542461"
         d="m 150.45285,198.38676 v 7.81004 q -3.03998,-1.35934 -5.93167,-2.05137 -2.8917,-0.69203 -5.46209,-0.69203 -3.41071,0 -5.04192,0.93918 -1.63121,0.93918 -1.63121,2.91641 0,1.48292 1.08747,2.32324 1.11219,0.8156 4.00388,1.40877 l 4.05331,0.81561 q 6.15412,1.23576 8.74922,3.75673 2.59511,2.52096 2.59511,7.16744 0,6.10468 -3.63315,9.09523 -3.60844,2.96584 -11.04775,2.96584 -3.50957,0 -7.04386,-0.66731 -3.53429,-0.66732 -7.06858,-1.97723 v -8.03248 q 3.53429,1.87837 6.82143,2.84227 3.31185,0.93918 6.37655,0.93918 3.11413,0 4.77005,-1.03805 1.65593,-1.03804 1.65593,-2.96583 0,-1.73008 -1.1369,-2.66926 -1.11219,-0.93918 -4.47348,-1.68064 l -3.68258,-0.8156 q -5.53623,-1.18634 -8.10662,-3.78145 -2.54568,-2.59511 -2.54568,-6.99443 0,-5.51152 3.55901,-8.47735 3.559,-2.96584 10.23214,-2.96584 3.03998,0 6.25297,0.46959 3.21299,0.44487 6.64842,1.35934 z" />
      <path
         id="path1086"
         style="font-style:normal;font-variant:normal;font-weight:bold;font-stretch:normal;font-family:sans-serif;-inkscape-font-specification:'sans-serif Bold';fill:#ffffff;stroke-width:1.26542461"
         d="m 161.25344,197.22514 h 9.5154 v 13.46985 l 13.717,-13.46985 h 11.04775 l -17.77032,17.47373 19.59925,19.42624 h -11.91278 l -14.6809,-14.53261 v 14.53261 h -9.5154 z" />
      <path
         id="path1088"
         style="font-style:normal;font-variant:normal;font-weight:bold;font-stretch:normal;font-family:sans-serif;-inkscape-font-specification:'sans-serif Bold';fill:#ffffff;stroke-width:1.26542461"
         d="m 200.50136,197.22514 h 9.5154 v 36.89997 h -9.5154 z" />
      <path
         id="path1090"
         style="font-style:normal;font-variant:normal;font-weight:bold;font-stretch:normal;font-family:sans-serif;-inkscape-font-specification:'sans-serif Bold';fill:#ffffff;stroke-width:1.26542461"
         d="m 259.37325,227.40254 h -14.87862 l -2.34796,6.72257 h -9.56482 l 13.66757,-36.89997 h 11.34433 l 13.66757,36.89997 h -9.56483 z M 246.8673,220.5564 h 10.10856 l -5.04192,-14.6809 z" />
      <path
         id="path1092"
         style="font-style:normal;font-variant:normal;font-weight:bold;font-stretch:normal;font-family:sans-serif;-inkscape-font-specification:'sans-serif Bold';fill:#ffffff;stroke-width:1.26542461"
         d="m 289.64951,213.58668 q 2.99056,0 4.27575,-1.11219 1.30992,-1.11219 1.30992,-3.65787 0,-2.52096 -1.30992,-3.60843 -1.28519,-1.08748 -4.27575,-1.08748 h -4.00388 v 9.46597 z m -4.00388,6.57427 v 13.96416 h -9.51539 v -36.89997 h 14.5326 q 7.29102,0 10.67702,2.44682 3.41071,2.44681 3.41071,7.73589 0,3.65787 -1.7795,6.00582 -1.75479,2.34796 -5.31379,3.46015 1.95251,0.44487 3.48486,2.02665 1.55706,1.55707 3.13884,4.74534 l 5.1655,10.4793 H 299.3132 l -4.49819,-9.16939 q -1.35934,-2.76811 -2.76811,-3.78144 -1.38406,-1.01333 -3.7073,-1.01333 z" />
      <path
         id="path1094"
         style="font-style:normal;font-variant:normal;font-weight:bold;font-stretch:normal;font-family:sans-serif;-inkscape-font-specification:'sans-serif Bold';fill:#ffffff;stroke-width:1.26542461"
         d="m 315.08156,197.22514 h 25.67921 v 7.19216 h -16.16381 v 6.87086 h 15.19992 v 7.19215 h -15.19992 v 8.45264 h 16.70755 v 7.19216 h -26.22295 z" />
      <path
         id="path1096"
         style="font-style:normal;font-variant:normal;font-weight:bold;font-stretch:normal;font-family:sans-serif;-inkscape-font-specification:'sans-serif Bold';fill:#ffffff;stroke-width:1.26542461"
         d="m 372.07508,227.40254 h -14.87862 l -2.34796,6.72257 h -9.56482 l 13.66756,-36.89997 h 11.34433 l 13.66757,36.89997 h -9.56482 z m -12.50595,-6.84614 h 10.10856 l -5.04192,-14.6809 z m 5.70924,-33.36568 h 6.99443 l -7.04387,6.52485 h -4.8442 z" />
      <path
         id="path1098"
         style="font-style:normal;font-variant:normal;font-weight:bold;font-stretch:normal;font-family:sans-serif;-inkscape-font-specification:'sans-serif Bold';fill:#ffffff;stroke-width:1.26542461"
         d="m 388.83208,197.22514 h 9.5154 v 29.70781 h 16.70755 v 7.19216 h -26.22295 z" />
    </g>
    <g
       id="text116"
       style="font-style:normal;font-weight:normal;font-size:348.3225708px;line-height:1.25;font-family:sans-serif;letter-spacing:0px;word-spacing:0px;fill:#ffffff;fill-opacity:1;stroke:none;stroke-width:8.70806408"
       transform="scale(0.9762436,1.0243345)"
       aria-label="Luisino údolí">
      <path
         id="path1059"
         style="font-style:normal;font-variant:normal;font-weight:normal;font-stretch:normal;font-size:43.37841797px;font-family:sans-serif;-inkscape-font-specification:sans-serif;text-align:start;letter-spacing:0.26766968px;text-anchor:start;fill:#ffffff;stroke-width:8.70806408"
         d="m 185.46778,261.36262 h 4.27853 v 28.02229 h 15.39849 v 3.60075 h -19.67702 z" />
      <path
         id="path1061"
         style="font-style:normal;font-variant:normal;font-weight:normal;font-stretch:normal;font-size:43.37841797px;font-family:sans-serif;-inkscape-font-specification:sans-serif;text-align:start;letter-spacing:0.26766968px;text-anchor:start;fill:#ffffff;stroke-width:8.70806408"
         d="m 208.54724,283.62371 v -14.36063 h 3.89728 v 14.21237 q 0,3.36775 1.31321,5.06222 1.31322,1.67329 3.93964,1.67329 3.15595,0 4.97751,-2.01218 1.84273,-2.01218 1.84273,-5.48584 v -13.44986 h 3.89728 v 23.72258 h -3.89728 v -3.64311 q -1.41911,2.16045 -3.30421,3.21949 -1.86392,1.03786 -4.34208,1.03786 -4.08791,0 -6.20599,-2.5417 -2.11809,-2.54171 -2.11809,-7.43449 z m 9.80674,-14.93251 z" />
      <path
         id="path1063"
         style="font-style:normal;font-variant:normal;font-weight:normal;font-stretch:normal;font-size:43.37841797px;font-family:sans-serif;-inkscape-font-specification:sans-serif;text-align:start;letter-spacing:0.26766968px;text-anchor:start;fill:#ffffff;stroke-width:8.70806408"
         d="m 236.75248,269.26308 h 3.89728 v 23.72258 h -3.89728 z m 0,-9.23485 h 3.89728 v 4.93514 h -3.89728 z" />
      <path
         id="path1065"
         style="font-style:normal;font-variant:normal;font-weight:normal;font-stretch:normal;font-size:43.37841797px;font-family:sans-serif;-inkscape-font-specification:sans-serif;text-align:start;letter-spacing:0.26766968px;text-anchor:start;fill:#ffffff;stroke-width:8.70806408"
         d="m 264.17402,269.96205 v 3.68547 q -1.65211,-0.84723 -3.4313,-1.27085 -1.77919,-0.42362 -3.68547,-0.42362 -2.90178,0 -4.36326,0.8896 -1.4403,0.8896 -1.4403,2.66879 0,1.35558 1.03786,2.13927 1.03787,0.76251 4.17264,1.46148 l 1.33439,0.29653 q 4.15145,0.8896 5.88828,2.52052 1.75801,1.60975 1.75801,4.51153 0,3.30421 -2.62642,5.23167 -2.60525,1.92746 -7.18032,1.92746 -1.90628,0 -3.982,-0.38125 -2.05455,-0.36008 -4.34208,-1.10141 v -4.02436 q 2.16045,1.12258 4.25736,1.69447 2.0969,0.5507 4.15145,0.5507 2.75351,0 4.23617,-0.93196 1.48266,-0.95314 1.48266,-2.66879 0,-1.58856 -1.08022,-2.4358 -1.05905,-0.84723 -4.68098,-1.63093 l -1.35557,-0.31771 q -3.62193,-0.76251 -5.23168,-2.32989 -1.60974,-1.58857 -1.60974,-4.34208 0,-3.34658 2.37226,-5.16813 2.37225,-1.82156 6.73551,-1.82156 2.16045,0 4.06673,0.31771 1.90628,0.31772 3.51602,0.95314 z" />
      <path
         id="path1067"
         style="font-style:normal;font-variant:normal;font-weight:normal;font-stretch:normal;font-size:43.37841797px;font-family:sans-serif;-inkscape-font-specification:sans-serif;text-align:start;letter-spacing:0.26766968px;text-anchor:start;fill:#ffffff;stroke-width:8.70806408"
         d="m 271.93971,269.26308 h 3.89728 v 23.72258 h -3.89728 z m 0,-9.23485 h 3.89728 v 4.93514 h -3.89728 z" />
      <path
         id="path1069"
         style="font-style:normal;font-variant:normal;font-weight:normal;font-stretch:normal;font-size:43.37841797px;font-family:sans-serif;-inkscape-font-specification:sans-serif;text-align:start;letter-spacing:0.26766968px;text-anchor:start;fill:#ffffff;stroke-width:8.70806408"
         d="m 303.9575,278.66739 v 14.31827 h -3.89728 v -14.19118 q 0,-3.36776 -1.31321,-5.04105 -1.31321,-1.67329 -3.93964,-1.67329 -3.15595,0 -4.97751,2.01218 -1.82155,2.01218 -1.82155,5.48585 v 13.40749 h -3.91846 v -23.72258 h 3.91846 v 3.68548 q 1.39794,-2.13927 3.28303,-3.19832 1.90628,-1.05904 4.38444,-1.05904 4.08791,0 6.18482,2.54171 2.0969,2.52052 2.0969,7.43448 z" />
      <path
         id="path1071"
         style="font-style:normal;font-variant:normal;font-weight:normal;font-stretch:normal;font-size:43.37841797px;font-family:sans-serif;-inkscape-font-specification:sans-serif;text-align:start;letter-spacing:0.26766968px;text-anchor:start;fill:#ffffff;stroke-width:8.70806408"
         d="m 321.23341,271.99542 q -3.13476,0 -4.95632,2.45698 -1.82155,2.4358 -1.82155,6.69315 0,4.25736 1.80037,6.71434 1.82156,2.4358 4.9775,2.4358 3.11359,0 4.93515,-2.45698 1.82155,-2.45698 1.82155,-6.69316 0,-4.21499 -1.82155,-6.67197 -1.82156,-2.47816 -4.93515,-2.47816 z m 0,-3.30422 q 5.08341,0 7.98519,3.30422 2.90178,3.30421 2.90178,9.15013 0,5.82474 -2.90178,9.15014 -2.90178,3.30421 -7.98519,3.30421 -5.10458,0 -8.00636,-3.30421 -2.8806,-3.3254 -2.8806,-9.15014 0,-5.84592 2.8806,-9.15013 2.90178,-3.30422 8.00636,-3.30422 z" />
      <path
         id="path1073"
         style="font-style:normal;font-variant:normal;font-weight:normal;font-stretch:normal;font-size:43.37841797px;font-family:sans-serif;-inkscape-font-specification:sans-serif;text-align:start;letter-spacing:0.26766968px;text-anchor:start;fill:#ffffff;stroke-width:8.70806408"
         d="m 352.5022,283.62371 v -14.36063 h 3.89728 v 14.21237 q 0,3.36775 1.31321,5.06222 1.31322,1.67329 3.93964,1.67329 3.15595,0 4.97751,-2.01218 1.84273,-2.01218 1.84273,-5.48584 v -13.44986 h 3.89728 v 23.72258 h -3.89728 v -3.64311 q -1.41912,2.16045 -3.30421,3.21949 -1.86392,1.03786 -4.34208,1.03786 -4.08791,0 -6.206,-2.5417 -2.11808,-2.54171 -2.11808,-7.43449 z m 9.80674,-14.93251 z m 2.90178,-10.39981 h 4.21499 l -6.90496,7.96401 h -3.24067 z" />
      <path
         id="path1075"
         style="font-style:normal;font-variant:normal;font-weight:normal;font-stretch:normal;font-size:43.37841797px;font-family:sans-serif;-inkscape-font-specification:sans-serif;text-align:start;letter-spacing:0.26766968px;text-anchor:start;fill:#ffffff;stroke-width:8.70806408"
         d="m 396.31773,272.86383 v -12.8356 h 3.89728 v 32.95743 h -3.89728 v -3.55839 q -1.22849,2.11809 -3.11359,3.15595 -1.86391,1.01668 -4.49034,1.01668 -4.29972,0 -7.01087,-3.4313 -2.68997,-3.4313 -2.68997,-9.02305 0,-5.59175 2.68997,-9.02305 2.71115,-3.4313 7.01087,-3.4313 2.62643,0 4.49034,1.03786 1.8851,1.01669 3.11359,3.13477 z m -13.2804,8.28172 q 0,4.29972 1.75801,6.7567 1.77919,2.4358 4.8716,2.4358 3.0924,0 4.8716,-2.4358 1.77919,-2.45698 1.77919,-6.7567 0,-4.29971 -1.77919,-6.73551 -1.7792,-2.45699 -4.8716,-2.45699 -3.09241,0 -4.8716,2.45699 -1.75801,2.4358 -1.75801,6.73551 z" />
      <path
         id="path1077"
         style="font-style:normal;font-variant:normal;font-weight:normal;font-stretch:normal;font-size:43.37841797px;font-family:sans-serif;-inkscape-font-specification:sans-serif;text-align:start;letter-spacing:0.26766968px;text-anchor:start;fill:#ffffff;stroke-width:8.70806408"
         d="m 417.70272,271.99542 q -3.13477,0 -4.95632,2.45698 -1.82156,2.4358 -1.82156,6.69315 0,4.25736 1.80038,6.71434 1.82155,2.4358 4.9775,2.4358 3.11359,0 4.93514,-2.45698 1.82156,-2.45698 1.82156,-6.69316 0,-4.21499 -1.82156,-6.67197 -1.82155,-2.47816 -4.93514,-2.47816 z m 0,-3.30422 q 5.08341,0 7.98519,3.30422 2.90178,3.30421 2.90178,9.15013 0,5.82474 -2.90178,9.15014 -2.90178,3.30421 -7.98519,3.30421 -5.10459,0 -8.00637,-3.30421 -2.88059,-3.3254 -2.88059,-9.15014 0,-5.84592 2.88059,-9.15013 2.90178,-3.30422 8.00637,-3.30422 z" />
      <path
         id="path1079"
         style="font-style:normal;font-variant:normal;font-weight:normal;font-stretch:normal;font-size:43.37841797px;font-family:sans-serif;-inkscape-font-specification:sans-serif;text-align:start;letter-spacing:0.26766968px;text-anchor:start;fill:#ffffff;stroke-width:8.70806408"
         d="m 435.29634,260.02823 h 3.89728 v 32.95743 h -3.89728 z" />
      <path
         id="path1081"
         style="font-style:normal;font-variant:normal;font-weight:normal;font-stretch:normal;font-size:43.37841797px;font-family:sans-serif;-inkscape-font-specification:sans-serif;text-align:start;letter-spacing:0.26766968px;text-anchor:start;fill:#ffffff;stroke-width:8.70806408"
         d="m 452.48754,258.29139 h 4.21499 l -6.90496,7.96401 h -3.24067 z m -4.89278,10.97169 h 3.89728 v 23.72258 h -3.89728 z m 1.94864,-0.57188 z" />
    </g>
  </g>
</svg>
